<svg width="500" height="500" viewBox="0 0 500 500" xmlns="http://www.w3.org/2000/svg">
    <defs/>
    <path fill="#000000" stroke="none" d="M 0 0 L 500 0 L 500 500 L 0 500 Z"/>
    <path fill="none" stroke="#0000ff" d="M 250 250 L 250.86717 250.5"/>
    <path fill="none" stroke="#0000ff" d="M 250.86717 250.5 L 251.36717 249.63281"/>
    <path fill="none" stroke="#00ffff" d="M 251.36717 249.63281 L 248.76953 251.13281"/>
    <path fill="none" stroke="#00ffff" d="M 248.76953 251.13281 L 249.26953 252"/>
    <path fill="none" stroke="#00ff00" d="M 249.26953 252 L 249.26953 247"/>
    <path fill="none" stroke="#00ff00" d="M 249.26953 247 L 248.26953 247"/>
    <path fill="none" stroke="#ff0000" d="M 248.26953 247 L 254.33203 250.5"/>
    <path fill="none" stroke="#ff0000" d="M 254.33203 250.5 L 254.83203 249.63281"/>
    <path fill="none" stroke="#ff00ff" d="M 254.83203 249.63281 L 247.03906 254.13281"/>
    <path fill="none" stroke="#ff00ff" d="M 247.03906 254.13281 L 247.53906 255"/>
    <path fill="none" stroke="#ffff00" d="M 247.53906 255 L 247.53906 244"/>
    <path fill="none" stroke="#ffff00" d="M 247.53906 244 L 246.53906 244"/>
    <path fill="none" stroke="#ffffff" d="M 246.53906 244 L 257.79688 250.5"/>
    <path fill="none" stroke="#ffffff" d="M 257.79688 250.5 L 258.29688 249.63281"/>
    <path fill="none" stroke="#a52a2a" d="M 258.29688 249.63281 L 245.30469 257.1328"/>
    <path fill="none" stroke="#a52a2a" d="M 245.30469 257.1328 L 245.80469 258"/>
    <path fill="none" stroke="#d2b48c" d="M 245.80469 258 L 245.80469 241"/>
    <path fill="none" stroke="#d2b48c" d="M 245.80469 241 L 244.80469 241"/>
    <path fill="none" stroke="#228b22" d="M 244.80469 241 L 261.2578 250.5"/>
    <path fill="none" stroke="#228b22" d="M 261.2578 250.5 L 261.7578 249.63281"/>
    <path fill="none" stroke="#7fffd4" d="M 261.7578 249.63281 L 243.57031 260.1328"/>
    <path fill="none" stroke="#7fffd4" d="M 243.57031 260.1328 L 244.07031 261"/>
    <path fill="none" stroke="#fa8072" d="M 244.07031 261 L 244.07031 238"/>
    <path fill="none" stroke="#fa8072" d="M 244.07031 238 L 243.07033 238"/>
    <path fill="none" stroke="#800080" d="M 243.07033 238 L 264.72266 250.5"/>
    <path fill="none" stroke="#800080" d="M 264.72266 250.5 L 265.22266 249.63281"/>
    <path fill="none" stroke="#ffa500" d="M 265.22266 249.63281 L 241.83984 263.1328"/>
    <path fill="none" stroke="#ffa500" d="M 241.83984 263.1328 L 242.33984 264"/>
    <path fill="none" stroke="#808080" d="M 242.33984 264 L 242.33984 235"/>
    <path fill="none" stroke="#808080" d="M 242.33984 235 L 241.33984 235"/>
    <path fill="none" stroke="#00ffff" d="M 241.33984 235 L 268.1875 250.5"/>
    <path fill="none" stroke="#00ffff" d="M 268.1875 250.5 L 268.6875 249.63281"/>
    <path fill="none" stroke="#00ff00" d="M 268.6875 249.63281 L 240.10939 266.1328"/>
    <path fill="none" stroke="#00ff00" d="M 240.10939 266.1328 L 240.60938 267"/>
    <path fill="none" stroke="#ff0000" d="M 240.60938 267 L 240.60938 232"/>
    <path fill="none" stroke="#ff0000" d="M 240.60938 232 L 239.60939 232"/>
    <path fill="none" stroke="#ff00ff" d="M 239.60939 232 L 271.65234 250.5"/>
    <path fill="none" stroke="#ff00ff" d="M 271.65234 250.5 L 272.15234 249.63281"/>
    <path fill="none" stroke="#ffff00" d="M 272.15234 249.63281 L 238.3789 269.1328"/>
    <path fill="none" stroke="#ffff00" d="M 238.3789 269.1328 L 238.8789 270"/>
    <path fill="none" stroke="#ffffff" d="M 238.8789 270 L 238.8789 229"/>
    <path fill="none" stroke="#ffffff" d="M 238.8789 229 L 237.8789 229"/>
    <path fill="none" stroke="#a52a2a" d="M 237.8789 229 L 275.1172 250.5"/>
    <path fill="none" stroke="#a52a2a" d="M 275.1172 250.5 L 275.6172 249.63281"/>
    <path fill="none" stroke="#d2b48c" d="M 275.6172 249.63281 L 236.64453 272.1328"/>
    <path fill="none" stroke="#d2b48c" d="M 236.64453 272.1328 L 237.14453 273"/>
    <path fill="none" stroke="#228b22" d="M 237.14453 273 L 237.14453 226"/>
    <path fill="none" stroke="#228b22" d="M 237.14453 226 L 236.14453 226"/>
    <path fill="none" stroke="#7fffd4" d="M 236.14453 226 L 278.57813 250.5"/>
    <path fill="none" stroke="#7fffd4" d="M 278.57813 250.5 L 279.07813 249.63281"/>
    <path fill="none" stroke="#fa8072" d="M 279.07813 249.63281 L 234.91014 275.1328"/>
    <path fill="none" stroke="#fa8072" d="M 234.91014 275.1328 L 235.41017 276"/>
    <path fill="none" stroke="#800080" d="M 235.41017 276 L 235.41017 223"/>
    <path fill="none" stroke="#800080" d="M 235.41017 223 L 234.41014 223"/>
    <path fill="none" stroke="#ffa500" d="M 234.41014 223 L 282.04297 250.5"/>
    <path fill="none" stroke="#ffa500" d="M 282.04297 250.5 L 282.54297 249.63281"/>
    <path fill="none" stroke="#808080" d="M 282.54297 249.63281 L 233.17969 278.1328"/>
    <path fill="none" stroke="#808080" d="M 233.17969 278.1328 L 233.67969 279"/>
    <path fill="none" stroke="#00ffff" d="M 233.67969 279 L 233.67969 220"/>
    <path fill="none" stroke="#00ffff" d="M 233.67969 220 L 232.67969 220"/>
    <path fill="none" stroke="#00ff00" d="M 232.67969 220 L 285.5078 250.5"/>
    <path fill="none" stroke="#00ff00" d="M 285.5078 250.5 L 286.0078 249.63281"/>
    <path fill="none" stroke="#ff0000" d="M 286.0078 249.63281 L 231.4492 281.1328"/>
    <path fill="none" stroke="#ff0000" d="M 231.4492 281.1328 L 231.9492 282"/>
    <path fill="none" stroke="#ff00ff" d="M 231.9492 282 L 231.9492 217"/>
    <path fill="none" stroke="#ff00ff" d="M 231.9492 217 L 230.94922 217"/>
    <path fill="none" stroke="#ffff00" d="M 230.94922 217 L 288.97266 250.5"/>
    <path fill="none" stroke="#ffff00" d="M 288.97266 250.5 L 289.47266 249.63281"/>
    <path fill="none" stroke="#ffffff" d="M 289.47266 249.63281 L 229.71875 284.1328"/>
    <path fill="none" stroke="#ffffff" d="M 229.71875 284.1328 L 230.21875 285"/>
    <path fill="none" stroke="#a52a2a" d="M 230.21875 285 L 230.21875 214"/>
    <path fill="none" stroke="#a52a2a" d="M 230.21875 214 L 229.21875 214"/>
    <path fill="none" stroke="#d2b48c" d="M 229.21875 214 L 292.4375 250.5"/>
    <path fill="none" stroke="#d2b48c" d="M 292.4375 250.5 L 292.9375 249.63281"/>
    <path fill="none" stroke="#228b22" d="M 292.9375 249.63281 L 227.98439 287.1328"/>
    <path fill="none" stroke="#228b22" d="M 227.98439 287.1328 L 228.48439 288"/>
    <path fill="none" stroke="#7fffd4" d="M 228.48439 288 L 228.48439 211"/>
    <path fill="none" stroke="#7fffd4" d="M 228.48439 211 L 227.48436 211"/>
    <path fill="none" stroke="#fa8072" d="M 227.48436 211 L 295.89844 250.5"/>
    <path fill="none" stroke="#fa8072" d="M 295.89844 250.5 L 296.39844 249.63281"/>
    <path fill="none" stroke="#800080" d="M 296.39844 249.63281 L 226.25 290.1328"/>
    <path fill="none" stroke="#800080" d="M 226.25 290.1328 L 226.75 291"/>
    <path fill="none" stroke="#ffa500" d="M 226.75 291 L 226.75 208"/>
    <path fill="none" stroke="#ffa500" d="M 226.75 208 L 225.75 208"/>
    <path fill="none" stroke="#808080" d="M 225.75 208 L 299.36328 250.5"/>
    <path fill="none" stroke="#808080" d="M 299.36328 250.5 L 299.86328 249.63281"/>
    <path fill="none" stroke="#00ffff" d="M 299.86328 249.63281 L 224.51953 293.1328"/>
    <path fill="none" stroke="#00ffff" d="M 224.51953 293.1328 L 225.01953 294"/>
    <path fill="none" stroke="#00ff00" d="M 225.01953 294 L 225.01953 205"/>
    <path fill="none" stroke="#00ff00" d="M 225.01953 205 L 224.01953 205"/>
    <path fill="none" stroke="#ff0000" d="M 224.01953 205 L 302.82813 250.5"/>
    <path fill="none" stroke="#ff0000" d="M 302.82813 250.5 L 303.32813 249.63281"/>
    <path fill="none" stroke="#ff00ff" d="M 303.32813 249.63281 L 222.78906 296.1328"/>
    <path fill="none" stroke="#ff00ff" d="M 222.78906 296.1328 L 223.28906 297"/>
    <path fill="none" stroke="#ffff00" d="M 223.28906 297 L 223.28906 202"/>
    <path fill="none" stroke="#ffff00" d="M 223.28906 202 L 222.28906 202"/>
    <path fill="none" stroke="#ffffff" d="M 222.28906 202 L 306.29297 250.5"/>
    <path fill="none" stroke="#ffffff" d="M 306.29297 250.5 L 306.79297 249.63281"/>
    <path fill="none" stroke="#a52a2a" d="M 306.79297 249.63281 L 221.05469 299.1328"/>
    <path fill="none" stroke="#a52a2a" d="M 221.05469 299.1328 L 221.55469 300"/>
    <path fill="none" stroke="#d2b48c" d="M 221.55469 300 L 221.55469 199"/>
    <path fill="none" stroke="#d2b48c" d="M 221.55469 199 L 220.55469 199"/>
    <path fill="none" stroke="#228b22" d="M 220.55469 199 L 309.7539 250.5"/>
    <path fill="none" stroke="#228b22" d="M 309.7539 250.5 L 310.2539 249.63281"/>
    <path fill="none" stroke="#7fffd4" d="M 310.2539 249.63281 L 219.32031 302.1328"/>
    <path fill="none" stroke="#7fffd4" d="M 219.32031 302.1328 L 219.82031 303"/>
    <path fill="none" stroke="#fa8072" d="M 219.82031 303 L 219.82031 196"/>
    <path fill="none" stroke="#fa8072" d="M 219.82031 196 L 218.82033 196"/>
    <path fill="none" stroke="#800080" d="M 218.82033 196 L 313.21875 250.5"/>
    <path fill="none" stroke="#800080" d="M 313.21875 250.5 L 313.71875 249.63281"/>
    <path fill="none" stroke="#ffa500" d="M 313.71875 249.63281 L 217.58984 305.1328"/>
    <path fill="none" stroke="#ffa500" d="M 217.58984 305.1328 L 218.08984 306"/>
    <path fill="none" stroke="#808080" d="M 218.08984 306 L 218.08984 193"/>
    <path fill="none" stroke="#808080" d="M 218.08984 193 L 217.08984 193"/>
    <path fill="none" stroke="#00ffff" d="M 217.08984 193 L 316.6836 250.5"/>
    <path fill="none" stroke="#00ffff" d="M 316.6836 250.5 L 317.1836 249.63281"/>
    <path fill="none" stroke="#00ff00" d="M 317.1836 249.63281 L 215.85939 308.1328"/>
    <path fill="none" stroke="#00ff00" d="M 215.85939 308.1328 L 216.35939 309"/>
    <path fill="none" stroke="#ff0000" d="M 216.35939 309 L 216.35939 190"/>
    <path fill="none" stroke="#ff0000" d="M 216.35939 190 L 215.35936 190"/>
    <path fill="none" stroke="#ff00ff" d="M 215.35936 190 L 320.14844 250.5"/>
    <path fill="none" stroke="#ff00ff" d="M 320.14844 250.5 L 320.64844 249.63281"/>
    <path fill="none" stroke="#ffff00" d="M 320.64844 249.63281 L 214.1289 311.1328"/>
    <path fill="none" stroke="#ffff00" d="M 214.1289 311.1328 L 214.6289 312"/>
    <path fill="none" stroke="#ffffff" d="M 214.6289 312 L 214.6289 187"/>
    <path fill="none" stroke="#ffffff" d="M 214.6289 187 L 213.6289 187"/>
    <path fill="none" stroke="#a52a2a" d="M 213.6289 187 L 323.61328 250.5"/>
    <path fill="none" stroke="#a52a2a" d="M 323.61328 250.5 L 324.11328 249.63281"/>
    <path fill="none" stroke="#d2b48c" d="M 324.11328 249.63281 L 212.39453 314.1328"/>
    <path fill="none" stroke="#d2b48c" d="M 212.39453 314.1328 L 212.89453 315"/>
    <path fill="none" stroke="#228b22" d="M 212.89453 315 L 212.89453 184"/>
    <path fill="none" stroke="#228b22" d="M 212.89453 184 L 211.89453 184"/>
    <path fill="none" stroke="#7fffd4" d="M 211.89453 184 L 327.07422 250.5"/>
    <path fill="none" stroke="#7fffd4" d="M 327.07422 250.5 L 327.57422 249.63281"/>
    <path fill="none" stroke="#fa8072" d="M 327.57422 249.63281 L 210.66014 317.1328"/>
    <path fill="none" stroke="#fa8072" d="M 210.66014 317.1328 L 211.16017 318"/>
    <path fill="none" stroke="#800080" d="M 211.16017 318 L 211.16017 181"/>
    <path fill="none" stroke="#800080" d="M 211.16017 181 L 210.16014 181"/>
    <path fill="none" stroke="#ffa500" d="M 210.16014 181 L 330.53906 250.5"/>
    <path fill="none" stroke="#ffa500" d="M 330.53906 250.5 L 331.03906 249.63281"/>
    <path fill="none" stroke="#808080" d="M 331.03906 249.63281 L 208.92969 320.1328"/>
    <path fill="none" stroke="#808080" d="M 208.92969 320.1328 L 209.42969 321"/>
    <path fill="none" stroke="#00ffff" d="M 209.42969 321 L 209.42969 178"/>
    <path fill="none" stroke="#00ffff" d="M 209.42969 178 L 208.42969 178"/>
    <path fill="none" stroke="#00ff00" d="M 208.42969 178 L 334.0039 250.5"/>
    <path fill="none" stroke="#00ff00" d="M 334.0039 250.5 L 334.5039 249.63281"/>
    <path fill="none" stroke="#ff0000" d="M 334.5039 249.63281 L 207.19922 323.1328"/>
    <path fill="none" stroke="#ff0000" d="M 207.19922 323.1328 L 207.6992 324"/>
    <path fill="none" stroke="#ff00ff" d="M 207.6992 324 L 207.6992 175"/>
    <path fill="none" stroke="#ff00ff" d="M 207.6992 175 L 206.69922 175"/>
    <path fill="none" stroke="#ffff00" d="M 206.69922 175 L 337.46875 250.5"/>
    <path fill="none" stroke="#ffff00" d="M 337.46875 250.5 L 337.96875 249.63281"/>
    <path fill="none" stroke="#ffffff" d="M 337.96875 249.63281 L 205.46484 326.1328"/>
    <path fill="none" stroke="#ffffff" d="M 205.46484 326.1328 L 205.96484 327"/>
    <path fill="none" stroke="#a52a2a" d="M 205.96484 327 L 205.96484 172"/>
    <path fill="none" stroke="#a52a2a" d="M 205.96484 172 L 204.96484 172"/>
    <path fill="none" stroke="#d2b48c" d="M 204.96484 172 L 340.9297 250.5"/>
    <path fill="none" stroke="#d2b48c" d="M 340.9297 250.5 L 341.4297 249.63281"/>
    <path fill="none" stroke="#228b22" d="M 341.4297 249.63281 L 203.73047 329.1328"/>
    <path fill="none" stroke="#228b22" d="M 203.73047 329.1328 L 204.23047 330"/>
    <path fill="none" stroke="#7fffd4" d="M 204.23047 330 L 204.23047 169"/>
    <path fill="none" stroke="#7fffd4" d="M 204.23047 169 L 203.23047 169"/>
    <path fill="none" stroke="#fa8072" d="M 203.23047 169 L 344.39456 250.5"/>
    <path fill="none" stroke="#fa8072" d="M 344.39456 250.5 L 344.89453 249.63281"/>
    <path fill="none" stroke="#800080" d="M 344.89453 249.63281 L 202 332.1328"/>
    <path fill="none" stroke="#800080" d="M 202 332.1328 L 202.5 333"/>
    <path fill="none" stroke="#ffa500" d="M 202.5 333 L 202.5 166"/>
    <path fill="none" stroke="#ffa500" d="M 202.5 166 L 201.5 166"/>
    <path fill="none" stroke="#808080" d="M 201.5 166 L 347.8594 250.5"/>
    <path fill="none" stroke="#808080" d="M 347.8594 250.5 L 348.3594 249.63281"/>
    <path fill="none" stroke="#00ffff" d="M 348.3594 249.63281 L 200.26953 335.1328"/>
    <path fill="none" stroke="#00ffff" d="M 200.26953 335.1328 L 200.76953 336"/>
    <path fill="none" stroke="#00ff00" d="M 200.76953 336 L 200.76953 163"/>
    <path fill="none" stroke="#00ff00" d="M 200.76953 163 L 199.76953 163"/>
    <path fill="none" stroke="#ff0000" d="M 199.76953 163 L 351.3242 250.5"/>
    <path fill="none" stroke="#ff0000" d="M 351.3242 250.5 L 351.8242 249.63281"/>
    <path fill="none" stroke="#ff00ff" d="M 351.8242 249.63281 L 198.53906 338.1328"/>
    <path fill="none" stroke="#ff00ff" d="M 198.53906 338.1328 L 199.03906 339"/>
    <path fill="none" stroke="#ffff00" d="M 199.03906 339 L 199.03906 160"/>
    <path fill="none" stroke="#ffff00" d="M 199.03906 160 L 198.03906 160"/>
    <path fill="none" stroke="#ffffff" d="M 198.03906 160 L 354.78906 250.5"/>
    <path fill="none" stroke="#ffffff" d="M 354.78906 250.5 L 355.28903 249.63281"/>
    <path fill="none" stroke="#a52a2a" d="M 355.28903 249.63281 L 196.80469 341.1328"/>
    <path fill="none" stroke="#a52a2a" d="M 196.80469 341.1328 L 197.30469 342"/>
    <path fill="none" stroke="#d2b48c" d="M 197.30469 342 L 197.30469 157"/>
    <path fill="none" stroke="#d2b48c" d="M 197.30469 157 L 196.30469 157"/>
    <path fill="none" stroke="#228b22" d="M 196.30469 157 L 358.2539 250.5"/>
    <path fill="none" stroke="#228b22" d="M 358.2539 250.5 L 358.7539 249.63281"/>
    <path fill="none" stroke="#7fffd4" d="M 358.7539 249.63281 L 195.07422 344.1328"/>
    <path fill="none" stroke="#7fffd4" d="M 195.07422 344.1328 L 195.5742 345"/>
    <path fill="none" stroke="#fa8072" d="M 195.5742 345 L 195.5742 154"/>
    <path fill="none" stroke="#fa8072" d="M 195.5742 154 L 194.57422 154"/>
    <path fill="none" stroke="#800080" d="M 194.57422 154 L 361.71875 250.5"/>
    <path fill="none" stroke="#800080" d="M 361.71875 250.5 L 362.21875 249.63281"/>
    <path fill="none" stroke="#ffa500" d="M 362.21875 249.63281 L 193.34375 347.1328"/>
    <path fill="none" stroke="#ffa500" d="M 193.34375 347.1328 L 193.84375 348"/>
    <path fill="none" stroke="#808080" d="M 193.84375 348 L 193.84375 151"/>
    <path fill="none" stroke="#808080" d="M 193.84375 151 L 192.84375 151"/>
    <path fill="none" stroke="#00ffff" d="M 192.84375 151 L 365.1836 250.5"/>
    <path fill="none" stroke="#00ffff" d="M 365.1836 250.5 L 365.6836 249.63281"/>
    <path fill="none" stroke="#00ff00" d="M 365.6836 249.63281 L 191.61328 350.1328"/>
    <path fill="none" stroke="#00ff00" d="M 191.61328 350.1328 L 192.11328 351"/>
    <path fill="none" stroke="#ff0000" d="M 192.11328 351 L 192.11328 148"/>
    <path fill="none" stroke="#ff0000" d="M 192.11328 148 L 191.11328 148"/>
    <path fill="none" stroke="#ff00ff" d="M 191.11328 148 L 368.64844 250.5"/>
    <path fill="none" stroke="#ff00ff" d="M 368.64844 250.5 L 369.14844 249.63281"/>
    <path fill="none" stroke="#ffff00" d="M 369.14844 249.63281 L 189.88281 353.13284"/>
    <path fill="none" stroke="#ffff00" d="M 189.88281 353.13284 L 190.38281 354"/>
    <path fill="none" stroke="#ffffff" d="M 190.38281 354 L 190.38281 145"/>
    <path fill="none" stroke="#ffffff" d="M 190.38281 145 L 189.38281 145"/>
    <path fill="none" stroke="#a52a2a" d="M 189.38281 145 L 372.11328 250.5"/>
    <path fill="none" stroke="#a52a2a" d="M 372.11328 250.5 L 372.61328 249.63281"/>
    <path fill="none" stroke="#d2b48c" d="M 372.61328 249.63281 L 188.14842 356.1328"/>
    <path fill="none" stroke="#d2b48c" d="M 188.14842 356.1328 L 188.64842 357"/>
    <path fill="none" stroke="#228b22" d="M 188.64842 357 L 188.64842 142"/>
    <path fill="none" stroke="#228b22" d="M 188.64842 142 L 187.64844 142"/>
    <path fill="none" stroke="#7fffd4" d="M 187.64844 142 L 375.57813 250.5"/>
    <path fill="none" stroke="#7fffd4" d="M 375.57813 250.5 L 376.07813 249.63281"/>
    <path fill="none" stroke="#fa8072" d="M 376.07813 249.63281 L 186.41797 359.1328"/>
    <path fill="none" stroke="#fa8072" d="M 186.41797 359.1328 L 186.91797 360"/>
    <path fill="none" stroke="#800080" d="M 186.91797 360 L 186.91797 139"/>
    <path fill="none" stroke="#800080" d="M 186.91797 139 L 185.91797 139"/>
    <path fill="none" stroke="#ffa500" d="M 185.91797 139 L 379.04297 250.5"/>
    <path fill="none" stroke="#ffa500" d="M 379.04297 250.5 L 379.54297 249.63281"/>
    <path fill="none" stroke="#808080" d="M 379.54297 249.63281 L 184.6875 362.1328"/>
    <path fill="none" stroke="#808080" d="M 184.6875 362.1328 L 185.18748 363"/>
    <path fill="none" stroke="#00ffff" d="M 185.18748 363 L 185.18748 136"/>
    <path fill="none" stroke="#00ffff" d="M 185.18748 136 L 184.1875 136"/>
    <path fill="none" stroke="#00ff00" d="M 184.1875 136 L 382.5078 250.5"/>
    <path fill="none" stroke="#00ff00" d="M 382.5078 250.5 L 383.0078 249.63281"/>
    <path fill="none" stroke="#ff0000" d="M 383.0078 249.63281 L 182.95703 365.1328"/>
    <path fill="none" stroke="#ff0000" d="M 182.95703 365.1328 L 183.45703 366"/>
    <path fill="none" stroke="#ff00ff" d="M 183.45703 366 L 183.45703 133"/>
    <path fill="none" stroke="#ff00ff" d="M 183.45703 133 L 182.45703 133"/>
    <path fill="none" stroke="#ffff00" d="M 182.45703 133 L 385.9727 250.5"/>
    <path fill="none" stroke="#ffff00" d="M 385.9727 250.5 L 386.4727 249.63281"/>
    <path fill="none" stroke="#ffffff" d="M 386.4727 249.63281 L 181.22656 368.13278"/>
    <path fill="none" stroke="#ffffff" d="M 181.22656 368.13278 L 181.72656 369"/>
    <path fill="none" stroke="#a52a2a" d="M 181.72656 369 L 181.72267 130"/>
    <path fill="none" stroke="#a52a2a" d="M 181.72267 130 L 180.72264 130"/>
    <path fill="none" stroke="#d2b48c" d="M 180.72264 130 L 389.4336 250.5"/>
    <path fill="none" stroke="#d2b48c" d="M 389.4336 250.5 L 389.9336 249.63281"/>
    <path fill="none" stroke="#228b22" d="M 389.9336 249.63281 L 179.48828 371.1328"/>
    <path fill="none" stroke="#228b22" d="M 179.48828 371.1328 L 179.98828 372"/>
    <path fill="none" stroke="#7fffd4" d="M 179.98828 372 L 179.98828 127"/>
    <path fill="none" stroke="#7fffd4" d="M 179.98828 127 L 178.98828 127"/>
    <path fill="none" stroke="#fa8072" d="M 178.98828 127 L 392.89844 250.49611"/>
    <path fill="none" stroke="#fa8072" d="M 392.89844 250.49611 L 393.39844 249.62889"/>
    <path fill="none" stroke="#800080" d="M 393.39844 249.62889 L 177.7617 374.1328"/>
    <path fill="none" stroke="#800080" d="M 177.7617 374.1328 L 178.2617 375"/>
    <path fill="none" stroke="#ffa500" d="M 178.2617 375 L 178.26563 124"/>
    <path fill="none" stroke="#ffa500" d="M 178.26563 124 L 177.26563 124"/>
    <path fill="none" stroke="#808080" d="M 177.26563 124 L 396.3711 250.5"/>
    <path fill="none" stroke="#808080" d="M 396.3711 250.5 L 396.8711 249.63281"/>
    <path fill="none" stroke="#00ffff" d="M 396.8711 249.63281 L 176.03517 377.1328"/>
    <path fill="none" stroke="#00ffff" d="M 176.03517 377.1328 L 176.53516 378"/>
    <path fill="none" stroke="#00ff00" d="M 176.53516 378 L 176.53516 121"/>
    <path fill="none" stroke="#00ff00" d="M 176.53516 121 L 175.53517 121"/>
    <path fill="none" stroke="#ff0000" d="M 175.53517 121 L 399.83597 250.5"/>
    <path fill="none" stroke="#ff0000" d="M 399.83597 250.5 L 400.33597 249.63281"/>
    <path fill="none" stroke="#ff00ff" d="M 400.33597 249.63281 L 174.30469 380.13675"/>
    <path fill="none" stroke="#ff00ff" d="M 174.30469 380.13675 L 174.80469 381.0039"/>
    <path fill="none" stroke="#ffff00" d="M 174.80469 381.0039 L 174.80077 118.00391"/>
    <path fill="none" stroke="#ffff00" d="M 174.80077 118.00391 L 173.80078 118.00391"/>
    <path fill="none" stroke="#ffffff" d="M 173.80078 118.00391 L 403.29688 250.50781"/>
    <path fill="none" stroke="#ffffff" d="M 403.29688 250.50781 L 403.79688 249.64063"/>
    <path fill="none" stroke="#a52a2a" d="M 403.79688 249.64063 L 172.5664 383.14063"/>
    <path fill="none" stroke="#a52a2a" d="M 172.5664 383.14063 L 173.0664 384.0078"/>
    <path fill="none" stroke="#d2b48c" d="M 173.0664 384.0078 L 173.0664 115.00781"/>
    <path fill="none" stroke="#d2b48c" d="M 173.0664 115.00781 L 172.0664 115.00781"/>
    <path fill="none" stroke="#228b22" d="M 172.0664 115.00781 L 406.7578 250.50781"/>
    <path fill="none" stroke="#228b22" d="M 406.7578 250.50781 L 407.2578 249.64063"/>
    <path fill="none" stroke="#7fffd4" d="M 407.2578 249.64063 L 170.83203 386.14063"/>
    <path fill="none" stroke="#7fffd4" d="M 170.83203 386.14063 L 171.33203 387.0078"/>
    <path fill="none" stroke="#fa8072" d="M 171.33203 387.0078 L 171.32813 112.00781"/>
    <path fill="none" stroke="#fa8072" d="M 171.32813 112.00781 L 170.32813 112.00781"/>
    <path fill="none" stroke="#800080" d="M 170.32813 112.00781 L 410.21875 250.5039"/>
    <path fill="none" stroke="#800080" d="M 410.21875 250.5039 L 410.71875 249.63672"/>
    <path fill="none" stroke="#ffa500" d="M 410.71875 249.63672 L 169.10156 389.14066"/>
    <path fill="none" stroke="#ffa500" d="M 169.10156 389.14066 L 169.60156 390.0078"/>
    <path fill="none" stroke="#808080" d="M 169.60156 390.0078 L 169.60547 109.00781"/>
    <path fill="none" stroke="#808080" d="M 169.60547 109.00781 L 168.60547 109.00781"/>
    <path fill="none" stroke="#00ffff" d="M 168.60547 109.00781 L 413.6914 250.50781"/>
    <path fill="none" stroke="#00ffff" d="M 413.6914 250.50781 L 414.1914 249.64063"/>
    <path fill="none" stroke="#00ff00" d="M 414.1914 249.64063 L 167.375 392.14063"/>
    <path fill="none" stroke="#00ff00" d="M 167.375 392.14063 L 167.875 393.0078"/>
    <path fill="none" stroke="#ff0000" d="M 167.875 393.0078 L 167.875 106.007805"/>
    <path fill="none" stroke="#ff0000" d="M 167.875 106.007805 L 166.875 106.007805"/>
    <path fill="none" stroke="#ff00ff" d="M 166.875 106.007805 L 417.15625 250.5039"/>
    <path fill="none" stroke="#ff00ff" d="M 417.15625 250.5039 L 417.65625 249.63672"/>
    <path fill="none" stroke="#ffff00" d="M 417.65625 249.63672 L 165.64453 395.14063"/>
    <path fill="none" stroke="#ffff00" d="M 165.64453 395.14063 L 166.14453 396.00778"/>
    <path fill="none" stroke="#ffffff" d="M 166.14453 396.00778 L 166.14063 103.00781"/>
    <path fill="none" stroke="#ffffff" d="M 166.14063 103.00781 L 165.14063 103.00781"/>
    <path fill="none" stroke="#a52a2a" d="M 165.14063 103.00781 L 420.6172 250.51173"/>
    <path fill="none" stroke="#a52a2a" d="M 420.6172 250.51173 L 421.1172 249.64452"/>
    <path fill="none" stroke="#d2b48c" d="M 421.1172 249.64452 L 163.90625 398.1445"/>
    <path fill="none" stroke="#d2b48c" d="M 163.90625 398.1445 L 164.40625 399.01172"/>
    <path fill="none" stroke="#228b22" d="M 164.40625 399.01172 L 164.40625 100.01171"/>
    <path fill="none" stroke="#228b22" d="M 164.40625 100.01171 L 163.40625 100.01171"/>
    <path fill="none" stroke="#7fffd4" d="M 163.40625 100.01171 L 424.08203 250.51173"/>
    <path fill="none" stroke="#7fffd4" d="M 424.08203 250.51173 L 424.58203 249.64452"/>
    <path fill="none" stroke="#fa8072" d="M 424.58203 249.64452 L 162.17578 401.14453"/>
    <path fill="none" stroke="#fa8072" d="M 162.17578 401.14453 L 162.67578 402.01172"/>
    <path fill="none" stroke="#800080" d="M 162.67578 402.01172 L 162.67188 97.01172"/>
    <path fill="none" stroke="#800080" d="M 162.67188 97.01172 L 161.67188 97.01172"/>
    <path fill="none" stroke="#ffa500" d="M 161.67188 97.01172 L 427.54297 250.50781"/>
    <path fill="none" stroke="#ffa500" d="M 427.54297 250.50781 L 428.04297 249.64063"/>
    <path fill="none" stroke="#808080" d="M 428.04297 249.64063 L 160.4414 404.13672"/>
    <path fill="none" stroke="#808080" d="M 160.4414 404.13672 L 160.9414 405.0039"/>
    <path fill="none" stroke="#00ffff" d="M 160.9414 405.0039 L 160.94531 94.00391"/>
    <path fill="none" stroke="#00ffff" d="M 160.94531 94.00391 L 159.94531 94.00391"/>
    <path fill="none" stroke="#00ff00" d="M 159.94531 94.00391 L 431.01172 250.5039"/>
    <path fill="none" stroke="#00ff00" d="M 431.01172 250.5039 L 431.51172 249.63672"/>
    <path fill="none" stroke="#ff0000" d="M 431.51172 249.63672 L 158.71484 407.13672"/>
    <path fill="none" stroke="#ff0000" d="M 158.71484 407.13672 L 159.21484 408.0039"/>
    <path fill="none" stroke="#ff00ff" d="M 159.21484 408.0039 L 159.21484 91.00391"/>
    <path fill="none" stroke="#ff00ff" d="M 159.21484 91.00391 L 158.21484 91.00391"/>
    <path fill="none" stroke="#ffff00" d="M 158.21484 91.00391 L 434.48047 250.5"/>
    <path fill="none" stroke="#ffff00" d="M 434.48047 250.5 L 434.98047 249.63281"/>
    <path fill="none" stroke="#ffffff" d="M 434.98047 249.63281 L 156.98828 410.1367"/>
    <path fill="none" stroke="#ffffff" d="M 156.98828 410.1367 L 157.48828 411.0039"/>
    <path fill="none" stroke="#a52a2a" d="M 157.48828 411.0039 L 157.49219 88.0039"/>
    <path fill="none" stroke="#a52a2a" d="M 157.49219 88.0039 L 156.49219 88.0039"/>
    <path fill="none" stroke="#d2b48c" d="M 156.49219 88.0039 L 437.94925 250.50781"/>
    <path fill="none" stroke="#d2b48c" d="M 437.94925 250.50781 L 438.44922 249.64063"/>
    <path fill="none" stroke="#228b22" d="M 438.44922 249.64063 L 155.25781 413.14063"/>
    <path fill="none" stroke="#228b22" d="M 155.25781 413.14063 L 155.75781 414.00784"/>
    <path fill="none" stroke="#7fffd4" d="M 155.75781 414.00784 L 155.75781 85.00781"/>
    <path fill="none" stroke="#7fffd4" d="M 155.75781 85.00781 L 154.75781 85.00781"/>
    <path fill="none" stroke="#fa8072" d="M 154.75781 85.00781 L 441.4141 250.50781"/>
    <path fill="none" stroke="#fa8072" d="M 441.4141 250.50781 L 441.9141 249.64063"/>
    <path fill="none" stroke="#800080" d="M 441.9141 249.64063 L 153.52734 416.14456"/>
    <path fill="none" stroke="#800080" d="M 153.52734 416.14456 L 154.02734 417.01172"/>
    <path fill="none" stroke="#ffa500" d="M 154.02734 417.01172 L 154.02344 82.01172"/>
    <path fill="none" stroke="#ffa500" d="M 154.02344 82.01172 L 153.02344 82.01172"/>
    <path fill="none" stroke="#808080" d="M 153.02344 82.01172 L 444.87888 250.50781"/>
    <path fill="none" stroke="#808080" d="M 444.87888 250.50781 L 445.37888 249.64063"/>
    <path fill="none" stroke="#00ffff" d="M 445.37888 249.64063 L 151.79297 419.13672"/>
    <path fill="none" stroke="#00ffff" d="M 151.79297 419.13672 L 152.29297 420.00394"/>
    <path fill="none" stroke="#00ff00" d="M 152.29297 420.00394 L 152.29297 79.00391"/>
    <path fill="none" stroke="#00ff00" d="M 152.29297 79.00391 L 151.29297 79.00391"/>
    <path fill="none" stroke="#ff0000" d="M 151.29297 79.00391 L 448.33984 250.5039"/>
    <path fill="none" stroke="#ff0000" d="M 448.33984 250.5039 L 448.83984 249.63672"/>
    <path fill="none" stroke="#ff00ff" d="M 448.83984 249.63672 L 150.0625 422.13672"/>
    <path fill="none" stroke="#ff00ff" d="M 150.0625 422.13672 L 150.5625 423.0039"/>
    <path fill="none" stroke="#ffff00" d="M 150.5625 423.0039 L 150.5586 76.00391"/>
    <path fill="none" stroke="#ffff00" d="M 150.5586 76.00391 L 149.5586 76.00391"/>
    <path fill="none" stroke="#ffffff" d="M 149.5586 76.00391 L 451.8047 250.5"/>
    <path fill="none" stroke="#ffffff" d="M 451.8047 250.5 L 452.3047 249.63281"/>
    <path fill="none" stroke="#a52a2a" d="M 452.3047 249.63281 L 148.33203 425.1367"/>
    <path fill="none" stroke="#a52a2a" d="M 148.33203 425.1367 L 148.83203 426.0039"/>
    <path fill="none" stroke="#d2b48c" d="M 148.83203 426.0039 L 148.83594 73.00391"/>
    <path fill="none" stroke="#d2b48c" d="M 148.83594 73.00391 L 147.83594 73.00391"/>
    <path fill="none" stroke="#228b22" d="M 147.83594 73.00391 L 455.27344 250.5039"/>
    <path fill="none" stroke="#228b22" d="M 455.27344 250.5039 L 455.77344 249.63672"/>
    <path fill="none" stroke="#7fffd4" d="M 455.77344 249.63672 L 146.60156 428.13675"/>
    <path fill="none" stroke="#7fffd4" d="M 146.60156 428.13675 L 147.10156 429.0039"/>
    <path fill="none" stroke="#fa8072" d="M 147.10156 429.0039 L 147.10156 70.00391"/>
    <path fill="none" stroke="#fa8072" d="M 147.10156 70.00391 L 146.10156 70.00391"/>
    <path fill="none" stroke="#800080" d="M 146.10156 70.00391 L 458.73828 250.5"/>
    <path fill="none" stroke="#800080" d="M 458.73828 250.5 L 459.23828 249.63281"/>
    <path fill="none" stroke="#ffa500" d="M 459.23828 249.63281 L 144.875 431.13672"/>
    <path fill="none" stroke="#ffa500" d="M 144.875 431.13672 L 145.375 432.0039"/>
    <path fill="none" stroke="#808080" d="M 145.375 432.0039 L 145.36719 67.00391"/>
    <path fill="none" stroke="#808080" d="M 145.36719 67.00391 L 144.36719 67.00391"/>
    <path fill="none" stroke="#00ffff" d="M 144.36719 67.00391 L 462.1953 250.50781"/>
    <path fill="none" stroke="#00ffff" d="M 462.1953 250.50781 L 462.6953 249.64063"/>
    <path fill="none" stroke="#00ff00" d="M 462.6953 249.64063 L 143.13281 434.14063"/>
    <path fill="none" stroke="#00ff00" d="M 143.13281 434.14063 L 143.63281 435.0078"/>
    <path fill="none" stroke="#ff0000" d="M 143.63281 435.0078 L 143.63281 64.00781"/>
    <path fill="none" stroke="#ff0000" d="M 143.63281 64.00781 L 142.63281 64.00781"/>
    <path fill="none" stroke="#ff00ff" d="M 142.63281 64.00781 L 465.66016 250.50781"/>
    <path fill="none" stroke="#ff00ff" d="M 465.66016 250.50781 L 466.16016 249.64063"/>
    <path fill="none" stroke="#ffff00" d="M 466.16016 249.64063 L 141.40234 437.14453"/>
    <path fill="none" stroke="#ffff00" d="M 141.40234 437.14453 L 141.90234 438.0117"/>
    <path fill="none" stroke="#ffffff" d="M 141.90234 438.0117 L 141.89844 61.01172"/>
    <path fill="none" stroke="#ffffff" d="M 141.89844 61.01172 L 140.89844 61.01172"/>
    <path fill="none" stroke="#a52a2a" d="M 140.89844 61.01172 L 469.125 250.50781"/>
    <path fill="none" stroke="#a52a2a" d="M 469.125 250.50781 L 469.625 249.64063"/>
    <path fill="none" stroke="#d2b48c" d="M 469.625 249.64063 L 139.66797 440.13672"/>
    <path fill="none" stroke="#d2b48c" d="M 139.66797 440.13672 L 140.16797 441.0039"/>
    <path fill="none" stroke="#228b22" d="M 140.16797 441.0039 L 140.17188 58.003906"/>
    <path fill="none" stroke="#228b22" d="M 140.17188 58.003906 L 139.17188 58.003906"/>
    <path fill="none" stroke="#7fffd4" d="M 139.17188 58.003906 L 472.58984 250.5039"/>
    <path fill="none" stroke="#7fffd4" d="M 472.58984 250.5039 L 473.08984 249.63672"/>
    <path fill="none" stroke="#fa8072" d="M 473.08984 249.63672 L 137.9375 443.13675"/>
    <path fill="none" stroke="#fa8072" d="M 137.9375 443.13675 L 138.4375 444.0039"/>
    <path fill="none" stroke="#800080" d="M 138.4375 444.0039 L 138.4336 55.003902"/>
    <path fill="none" stroke="#800080" d="M 138.4336 55.003902 L 137.4336 55.003902"/>
    <path fill="none" stroke="#ffa500" d="M 137.4336 55.003902 L 476.0508 250.5"/>
    <path fill="none" stroke="#ffa500" d="M 476.0508 250.5 L 476.5508 249.63281"/>
    <path fill="none" stroke="#808080" d="M 476.5508 249.63281 L 136.20703 446.13672"/>
    <path fill="none" stroke="#808080" d="M 136.20703 446.13672 L 136.70703 447.0039"/>
    <path fill="none" stroke="#00ffff" d="M 136.70703 447.0039 L 136.71094 52.003906"/>
    <path fill="none" stroke="#00ffff" d="M 136.71094 52.003906 L 135.71094 52.003906"/>
    <path fill="none" stroke="#00ff00" d="M 135.71094 52.003906 L 479.52344 250.50781"/>
    <path fill="none" stroke="#00ff00" d="M 479.52344 250.50781 L 480.02344 249.64063"/>
    <path fill="none" stroke="#ff0000" d="M 480.02344 249.64063 L 134.48047 449.14063"/>
    <path fill="none" stroke="#ff0000" d="M 134.48047 449.14063 L 134.98047 450.0078"/>
    <path fill="none" stroke="#ff00ff" d="M 134.98047 450.0078 L 134.98047 49.00781"/>
    <path fill="none" stroke="#ff00ff" d="M 134.98047 49.00781 L 133.98047 49.00781"/>
    <path fill="none" stroke="#ffff00" d="M 133.98047 49.00781 L 482.98828 250.50781"/>
    <path fill="none" stroke="#ffff00" d="M 482.98828 250.50781 L 483.48828 249.64063"/>
    <path fill="none" stroke="#ffffff" d="M 483.48828 249.64063 L 132.75 452.14453"/>
    <path fill="none" stroke="#ffffff" d="M 132.75 452.14453 L 133.25 453.0117"/>
    <path fill="none" stroke="#a52a2a" d="M 133.25 453.0117 L 133.2461 46.01172"/>
    <path fill="none" stroke="#a52a2a" d="M 133.2461 46.01172 L 132.2461 46.01172"/>
    <path fill="none" stroke="#d2b48c" d="M 132.2461 46.01172 L 486.45313 250.5039"/>
    <path fill="none" stroke="#d2b48c" d="M 486.45313 250.5039 L 486.95313 249.63672"/>
    <path fill="none" stroke="#228b22" d="M 486.95313 249.63672 L 131.01563 455.1328"/>
    <path fill="none" stroke="#228b22" d="M 131.01563 455.1328 L 131.51563 456"/>
    <path fill="none" stroke="#7fffd4" d="M 131.51563 456 L 131.51563 43"/>
    <path fill="none" stroke="#7fffd4" d="M 131.51563 43 L 130.51563 43"/>
    <path fill="none" stroke="#fa8072" d="M 130.51563 43 L 489.91797 250.5"/>
    <path fill="none" stroke="#fa8072" d="M 489.91797 250.5 L 490.41797 249.63281"/>
    <path fill="none" stroke="#800080" d="M 490.41797 249.63281 L 129.28516 458.1328"/>
    <path fill="none" stroke="#800080" d="M 129.28516 458.1328 L 129.78516 459"/>
    <path fill="none" stroke="#ffa500" d="M 129.78516 459 L 129.78125 40"/>
    <path fill="none" stroke="#ffa500" d="M 129.78125 40 L 128.78125 40"/>
    <path fill="none" stroke="#808080" d="M 128.78125 40 L 493.37888 250.49611"/>
    <path fill="none" stroke="#808080" d="M 493.37888 250.49611 L 493.87888 249.62889"/>
    <path fill="none" stroke="#00ffff" d="M 493.87888 249.62889 L 127.55468 461.13672"/>
    <path fill="none" stroke="#00ffff" d="M 127.55468 461.13672 L 128.05469 462.0039"/>
    <path fill="none" stroke="#00ff00" d="M 128.05469 462.0039 L 128.0586 37.003906"/>
    <path fill="none" stroke="#00ff00" d="M 128.0586 37.003906 L 127.05859 37.003906"/>
    <path fill="none" stroke="#ff0000" d="M 127.05859 37.003906 L 496.85156 250.5039"/>
    <path fill="none" stroke="#ff0000" d="M 496.85156 250.5039 L 497.35156 249.63672"/>
    <path fill="none" stroke="#ff00ff" d="M 497.35156 249.63672 L 125.828125 464.13672"/>
    <path fill="none" stroke="#ff00ff" d="M 125.828125 464.13672 L 126.328125 465.00388"/>
    <path fill="none" stroke="#ffff00" d="M 126.328125 465.00388 L 126.328125 34.003906"/>
    <path fill="none" stroke="#ffff00" d="M 126.328125 34.003906 L 125.328125 34.003906"/>
    <path fill="none" stroke="#ffffff" d="M 125.328125 34.003906 L 500.32028 250.5"/>
    <path fill="none" stroke="#ffffff" d="M 500.32028 250.5 L 500.82028 249.63281"/>
    <path fill="none" stroke="#a52a2a" d="M 500.82028 249.63281 L 124.10156 467.13672"/>
    <path fill="none" stroke="#a52a2a" d="M 124.10156 467.13672 L 124.60156 468.00394"/>
    <path fill="none" stroke="#d2b48c" d="M 124.60156 468.00394 L 124.59374 31.003906"/>
    <path fill="none" stroke="#d2b48c" d="M 124.59374 31.003906 L 123.59375 31.003906"/>
    <path fill="none" stroke="#228b22" d="M 123.59375 31.003906 L 503.77737 250.50781"/>
    <path fill="none" stroke="#228b22" d="M 503.77737 250.50781 L 504.27737 249.64063"/>
    <path fill="none" stroke="#7fffd4" d="M 504.27737 249.64063 L 122.359375 470.13672"/>
    <path fill="none" stroke="#7fffd4" d="M 122.359375 470.13672 L 122.859375 471.0039"/>
    <path fill="none" stroke="#fa8072" d="M 122.859375 471.0039 L 122.859375 28.003906"/>
    <path fill="none" stroke="#fa8072" d="M 122.859375 28.003906 L 121.85938 28.003906"/>
    <path fill="none" stroke="#800080" d="M 121.85938 28.003906 L 507.24216 250.5039"/>
    <path fill="none" stroke="#800080" d="M 507.24216 250.5039 L 507.74216 249.63672"/>
    <path fill="none" stroke="#ffa500" d="M 507.74216 249.63672 L 120.628914 473.14063"/>
    <path fill="none" stroke="#ffa500" d="M 120.628914 473.14063 L 121.12891 474.0078"/>
    <path fill="none" stroke="#808080" d="M 121.12891 474.0078 L 121.125 25.007813"/>
    <path fill="none" stroke="#808080" d="M 121.125 25.007813 L 120.125 25.007813"/>
    <path fill="none" stroke="#00ffff" d="M 120.125 25.007813 L 510.707 250.5"/>
    <path fill="none" stroke="#00ffff" d="M 510.707 250.5 L 511.207 249.63281"/>
    <path fill="none" stroke="#00ff00" d="M 511.207 249.63281 L 118.89453 476.1289"/>
    <path fill="none" stroke="#00ff00" d="M 118.89453 476.1289 L 119.39453 476.99606"/>
    <path fill="none" stroke="#ff0000" d="M 119.39453 476.99606 L 119.39844 21.996094"/>
    <path fill="none" stroke="#ff0000" d="M 119.39844 21.996094 L 118.39843 21.996094"/>
    <path fill="none" stroke="#ff00ff" d="M 118.39843 21.996094 L 514.1719 250.49611"/>
    <path fill="none" stroke="#ff00ff" d="M 514.1719 250.49611 L 514.6719 249.62889"/>
    <path fill="none" stroke="#ffff00" d="M 514.6719 249.62889 L 117.16796 479.1289"/>
    <path fill="none" stroke="#ffff00" d="M 117.16796 479.1289 L 117.66798 479.9961"/>
    <path fill="none" stroke="#ffffff" d="M 117.66798 479.9961 L 117.66406 18.996094"/>
    <path fill="none" stroke="#ffffff" d="M 117.66406 18.996094 L 116.66406 18.996094"/>
    <path fill="none" stroke="#a52a2a" d="M 116.66406 18.996094 L 517.6367 250.49219"/>
    <path fill="none" stroke="#a52a2a" d="M 517.6367 250.49219 L 518.1367 249.625"/>
    <path fill="none" stroke="#d2b48c" d="M 518.1367 249.625 L 115.4375 482.1289"/>
    <path fill="none" stroke="#d2b48c" d="M 115.4375 482.1289 L 115.93749 482.9961"/>
    <path fill="none" stroke="#228b22" d="M 115.93749 482.9961 L 115.929695 15.996094"/>
    <path fill="none" stroke="#228b22" d="M 115.929695 15.996094 L 114.92969 15.996094"/>
    <path fill="none" stroke="#7fffd4" d="M 114.92969 15.996094 L 521.09375 250.5"/>
    <path fill="none" stroke="#7fffd4" d="M 521.09375 250.5 L 521.59375 249.63281"/>
    <path fill="none" stroke="#fa8072" d="M 521.59375 249.63281 L 113.69531 485.1328"/>
    <path fill="none" stroke="#fa8072" d="M 113.69531 485.1328 L 114.19531 486"/>
    <path fill="none" stroke="#800080" d="M 114.19531 486 L 114.19531 13"/>
    <path fill="none" stroke="#800080" d="M 114.19531 13 L 113.19531 13"/>
    <path fill="none" stroke="#ffa500" d="M 113.19531 13 L 524.5586 250.49611"/>
    <path fill="none" stroke="#ffa500" d="M 524.5586 250.49611 L 525.0586 249.62889"/>
    <path fill="none" stroke="#808080" d="M 525.0586 249.62889 L 111.96484 488.1328"/>
    <path fill="none" stroke="#808080" d="M 111.96484 488.1328 L 112.46484 489"/>
    <path fill="none" stroke="#00ffff" d="M 112.46484 489 L 112.45703 10"/>
    <path fill="none" stroke="#00ffff" d="M 112.45703 10 L 111.45703 10"/>
    <path fill="none" stroke="#00ff00" d="M 111.45703 10 L 528.01953 250.49219"/>
    <path fill="none" stroke="#00ff00" d="M 528.01953 250.49219 L 528.51953 249.625"/>
    <path fill="none" stroke="#ff0000" d="M 528.51953 249.625 L 110.22656 491.1211"/>
    <path fill="none" stroke="#ff0000" d="M 110.22656 491.1211 L 110.72656 491.98828"/>
    <path fill="none" stroke="#ff00ff" d="M 110.72656 491.98828 L 110.73047 6.988281"/>
    <path fill="none" stroke="#ff00ff" d="M 110.73047 6.988281 L 109.73047 6.988281"/>
    <path fill="none" stroke="#ffff00" d="M 109.73047 6.988281 L 531.4844 250.48828"/>
    <path fill="none" stroke="#ffff00" d="M 531.4844 250.48828 L 531.9844 249.6211"/>
    <path fill="none" stroke="#ffffff" d="M 531.9844 249.6211 L 108.5 494.1211"/>
    <path fill="none" stroke="#ffffff" d="M 108.5 494.1211 L 109 494.98828"/>
    <path fill="none" stroke="#a52a2a" d="M 109 494.98828 L 108.99609 3.9882813"/>
    <path fill="none" stroke="#a52a2a" d="M 108.99609 3.9882813 L 107.9961 3.9882813"/>
    <path fill="none" stroke="#d2b48c" d="M 107.9961 3.9882813 L 534.9414 250.49611"/>
    <path fill="none" stroke="#d2b48c" d="M 534.9414 250.49611 L 535.4414 249.62889"/>
    <path fill="none" stroke="#228b22" d="M 535.4414 249.62889 L 106.76172 497.13672"/>
    <path fill="none" stroke="#228b22" d="M 106.76172 497.13672 L 107.26172 498.00388"/>
    <path fill="none" stroke="#7fffd4" d="M 107.26172 498.00388 L 107.265625 1.0039063"/>
    <path fill="none" stroke="#7fffd4" d="M 107.265625 1.0039063 L 106.26562 1.0039063"/>
    <path fill="none" stroke="#fa8072" d="M 106.26562 1.0039063 L 538.41797 250.49219"/>
    <path fill="none" stroke="#fa8072" d="M 538.41797 250.49219 L 538.91797 249.625"/>
    <path fill="none" stroke="#800080" d="M 538.91797 249.625 L 105.03906 500.125"/>
    <path fill="none" stroke="#800080" d="M 105.03906 500.125 L 105.53906 500.99222"/>
    <path fill="none" stroke="#ffa500" d="M 105.53906 500.99222 L 105.52344 -2.0078125"/>
    <path fill="none" stroke="#ffa500" d="M 105.52344 -2.0078125 L 104.52344 -2.0078125"/>
</svg>
