<svg width="500" height="500" viewBox="0 0 500 500" xmlns="http://www.w3.org/2000/svg">
    <defs/>
    <path fill="#000000" stroke="none" d="M 0 0 L 500 0 L 500 500 L 0 500 Z"/>
    <path fill="none" stroke="#0000ff" d="M 250 250 L 250 245"/>
    <path fill="none" stroke="#00ffff" d="M 250 245 L 260 245"/>
    <path fill="none" stroke="#00ff00" d="M 260 245 L 260 260"/>
    <path fill="none" stroke="#ff0000" d="M 260 260 L 240 260"/>
    <path fill="none" stroke="#ff00ff" d="M 240 260 L 240 235"/>
    <path fill="none" stroke="#ffff00" d="M 240 235 L 270 235"/>
    <path fill="none" stroke="#ffffff" d="M 270 235 L 270 270"/>
    <path fill="none" stroke="#a52a2a" d="M 270 270 L 230 270"/>
    <path fill="none" stroke="#d2b48c" d="M 230 270 L 230 225"/>
    <path fill="none" stroke="#228b22" d="M 230 225 L 280 225"/>
    <path fill="none" stroke="#7fffd4" d="M 280 225 L 280 280"/>
    <path fill="none" stroke="#fa8072" d="M 280 280 L 220 280"/>
    <path fill="none" stroke="#800080" d="M 220 280 L 220 215"/>
    <path fill="none" stroke="#ffa500" d="M 220 215 L 290 215"/>
    <path fill="none" stroke="#0000ff" d="M 290 215 L 290 290"/>
    <path fill="none" stroke="#00ffff" d="M 290 290 L 210 290"/>
    <path fill="none" stroke="#00ff00" d="M 210 290 L 210 205"/>
    <path fill="none" stroke="#ff0000" d="M 210 205 L 300 205"/>
    <path fill="none" stroke="#ff00ff" d="M 300 205 L 300 300"/>
    <path fill="none" stroke="#ffff00" d="M 300 300 L 200 300"/>
    <path fill="none" stroke="#ffffff" d="M 200 300 L 200 195"/>
    <path fill="none" stroke="#a52a2a" d="M 200 195 L 310 195"/>
    <path fill="none" stroke="#d2b48c" d="M 310 195 L 310 310"/>
    <path fill="none" stroke="#228b22" d="M 310 310 L 190 310"/>
    <path fill="none" stroke="#7fffd4" d="M 190 310 L 190 185"/>
    <path fill="none" stroke="#fa8072" d="M 190 185 L 320 185"/>
    <path fill="none" stroke="#800080" d="M 320 185 L 320 320"/>
    <path fill="none" stroke="#ffa500" d="M 320 320 L 180 320"/>
    <path fill="none" stroke="#0000ff" d="M 180 320 L 180 175"/>
    <path fill="none" stroke="#00ffff" d="M 180 175 L 330 175"/>
    <path fill="none" stroke="#00ff00" d="M 330 175 L 330 330"/>
    <path fill="none" stroke="#ff0000" d="M 330 330 L 170 330"/>
    <path fill="none" stroke="#ff00ff" d="M 170 330 L 170 165"/>
    <path fill="none" stroke="#ffff00" d="M 170 165 L 340 165"/>
    <path fill="none" stroke="#ffffff" d="M 340 165 L 340 340"/>
    <path fill="none" stroke="#a52a2a" d="M 340 340 L 160 340"/>
    <path fill="none" stroke="#d2b48c" d="M 160 340 L 160 155"/>
    <path fill="none" stroke="#228b22" d="M 160 155 L 350 155"/>
    <path fill="none" stroke="#7fffd4" d="M 350 155 L 350 350"/>
    <path fill="none" stroke="#fa8072" d="M 350 350 L 150 350"/>
    <path fill="none" stroke="#800080" d="M 150 350 L 150 145"/>
    <path fill="none" stroke="#ffa500" d="M 150 145 L 360 145"/>
    <path fill="none" stroke="#0000ff" d="M 360 145 L 360 360"/>
    <path fill="none" stroke="#00ffff" d="M 360 360 L 140 360"/>
    <path fill="none" stroke="#00ff00" d="M 140 360 L 140 135"/>
    <path fill="none" stroke="#ff0000" d="M 140 135 L 370 135"/>
    <path fill="none" stroke="#ff00ff" d="M 370 135 L 370 370"/>
    <path fill="none" stroke="#ffff00" d="M 370 370 L 130 370"/>
    <path fill="none" stroke="#ffffff" d="M 130 370 L 130 125"/>
    <path fill="none" stroke="#a52a2a" d="M 130 125 L 380 125"/>
    <path fill="none" stroke="#d2b48c" d="M 380 125 L 380 380"/>
    <path fill="none" stroke="#228b22" d="M 380 380 L 120 380"/>
    <path fill="none" stroke="#7fffd4" d="M 120 380 L 120 115"/>
    <path fill="none" stroke="#fa8072" d="M 120 115 L 390 115"/>
    <path fill="none" stroke="#800080" d="M 390 115 L 390 390"/>
    <path fill="none" stroke="#ffa500" d="M 390 390 L 110 390"/>
    <path fill="none" stroke="#0000ff" d="M 110 390 L 110 105"/>
    <path fill="none" stroke="#00ffff" d="M 110 105 L 400 105"/>
    <path fill="none" stroke="#00ff00" d="M 400 105 L 400 400"/>
    <path fill="none" stroke="#ff0000" d="M 400 400 L 100 400"/>
    <path fill="none" stroke="#ff00ff" d="M 100 400 L 100 95"/>
    <path fill="none" stroke="#ffff00" d="M 100 95 L 410 95"/>
    <path fill="none" stroke="#ffffff" d="M 410 95 L 410 410"/>
    <path fill="none" stroke="#a52a2a" d="M 410 410 L 90 410"/>
    <path fill="none" stroke="#d2b48c" d="M 90 410 L 90 85"/>
    <path fill="none" stroke="#228b22" d="M 90 85 L 420 85"/>
    <path fill="none" stroke="#7fffd4" d="M 420 85 L 420 420"/>
    <path fill="none" stroke="#fa8072" d="M 420 420 L 80 420"/>
    <path fill="none" stroke="#800080" d="M 80 420 L 80 75"/>
    <path fill="none" stroke="#ffa500" d="M 80 75 L 430 75"/>
    <path fill="none" stroke="#0000ff" d="M 430 75 L 430 430"/>
    <path fill="none" stroke="#00ffff" d="M 430 430 L 70 430"/>
    <path fill="none" stroke="#00ff00" d="M 70 430 L 70 65"/>
    <path fill="none" stroke="#ff0000" d="M 70 65 L 440 65"/>
    <path fill="none" stroke="#ff00ff" d="M 440 65 L 440 440"/>
    <path fill="none" stroke="#ffff00" d="M 440 440 L 60 440"/>
    <path fill="none" stroke="#ffffff" d="M 60 440 L 60 55"/>
    <path fill="none" stroke="#a52a2a" d="M 60 55 L 450 55"/>
    <path fill="none" stroke="#d2b48c" d="M 450 55 L 450 450"/>
    <path fill="none" stroke="#228b22" d="M 450 450 L 50 450"/>
    <path fill="none" stroke="#7fffd4" d="M 50 450 L 50 45"/>
    <path fill="none" stroke="#fa8072" d="M 50 45 L 460 45"/>
    <path fill="none" stroke="#800080" d="M 460 45 L 460 460"/>
    <path fill="none" stroke="#ffa500" d="M 460 460 L 40 460"/>
    <path fill="none" stroke="#0000ff" d="M 40 460 L 40 35"/>
    <path fill="none" stroke="#00ffff" d="M 40 35 L 470 34.996094"/>
    <path fill="none" stroke="#00ff00" d="M 470 34.996094 L 470 469.9961"/>
    <path fill="none" stroke="#ff0000" d="M 470 469.9961 L 30 469.9961"/>
    <path fill="none" stroke="#ff00ff" d="M 30 469.9961 L 30.003906 24.996094"/>
    <path fill="none" stroke="#ffff00" d="M 30.003906 24.996094 L 480.0039 24.992188"/>
    <path fill="none" stroke="#ffffff" d="M 480.0039 24.992188 L 480.0039 479.9922"/>
    <path fill="none" stroke="#a52a2a" d="M 480.0039 479.9922 L 20.003906 479.9922"/>
    <path fill="none" stroke="#d2b48c" d="M 20.003906 479.9922 L 20 14.992187"/>
    <path fill="none" stroke="#228b22" d="M 20 14.992187 L 490 14.992187"/>
    <path fill="none" stroke="#7fffd4" d="M 490 14.992187 L 490 489.9922"/>
    <path fill="none" stroke="#fa8072" d="M 490 489.9922 L 10 489.9961"/>
</svg>
