<svg width="500" height="500" viewBox="0 0 500 500" xmlns="http://www.w3.org/2000/svg">
    <defs/>
    <path fill="#000000" stroke="none" d="M 0 0 L 500 0 L 500 500 L 0 500 Z"/>
    <path fill="none" stroke="#d2b48c" d="M 250 250 L 253.42188 240.60156"/>
    <path fill="none" stroke="#d2b48c" d="M 253.42188 240.60156 L 244.02344 237.17967"/>
    <path fill="none" stroke="#d2b48c" d="M 244.02344 237.17967 L 240.60156 246.57814"/>
    <path fill="none" stroke="#d2b48c" d="M 240.60156 246.57814 L 250 250"/>
    <path fill="none" stroke="#ff0000" d="M 250 250 L 256.4297 242.33984"/>
    <path fill="none" stroke="#ff0000" d="M 256.4297 242.33984 L 248.76953 235.91017"/>
    <path fill="none" stroke="#ff0000" d="M 248.76953 235.91017 L 242.33984 243.57031"/>
    <path fill="none" stroke="#ff0000" d="M 242.33984 243.57031 L 250 250"/>
    <path fill="none" stroke="#ffff00" d="M 250 250 L 258.66016 245"/>
    <path fill="none" stroke="#ffff00" d="M 258.66016 245 L 253.66016 236.33983"/>
    <path fill="none" stroke="#ffff00" d="M 253.66016 236.33983 L 245 241.33984"/>
    <path fill="none" stroke="#ffff00" d="M 245 241.33984 L 250 250"/>
    <path fill="none" stroke="#a52a2a" d="M 250 250 L 259.84766 248.26172"/>
    <path fill="none" stroke="#a52a2a" d="M 259.84766 248.26172 L 258.10938 238.41406"/>
    <path fill="none" stroke="#a52a2a" d="M 258.10938 238.41406 L 248.26172 240.15234"/>
    <path fill="none" stroke="#a52a2a" d="M 248.26172 240.15234 L 250 250"/>
    <path fill="none" stroke="#228b22" d="M 250 250 L 259.84766 251.73828"/>
    <path fill="none" stroke="#228b22" d="M 259.84766 251.73828 L 261.58594 241.89063"/>
    <path fill="none" stroke="#228b22" d="M 261.58594 241.89063 L 251.73828 240.15234"/>
    <path fill="none" stroke="#228b22" d="M 251.73828 240.15234 L 250 250"/>
    <path fill="none" stroke="#ff0000" d="M 250 250 L 258.66016 255"/>
    <path fill="none" stroke="#ff0000" d="M 258.66016 255 L 263.66016 246.33984"/>
    <path fill="none" stroke="#ff0000" d="M 263.66016 246.33984 L 255 241.33984"/>
    <path fill="none" stroke="#ff0000" d="M 255 241.33984 L 250 250"/>
    <path fill="none" stroke="#ffff00" d="M 250 250 L 256.4297 257.66016"/>
    <path fill="none" stroke="#ffff00" d="M 256.4297 257.66016 L 264.08984 251.23047"/>
    <path fill="none" stroke="#ffff00" d="M 264.08984 251.23047 L 257.66016 243.57031"/>
    <path fill="none" stroke="#ffff00" d="M 257.66016 243.57031 L 250 250"/>
    <path fill="none" stroke="#a52a2a" d="M 250 250 L 253.42188 259.39844"/>
    <path fill="none" stroke="#a52a2a" d="M 253.42188 259.39844 L 262.8203 255.97658"/>
    <path fill="none" stroke="#a52a2a" d="M 262.8203 255.97658 L 259.39844 246.57814"/>
    <path fill="none" stroke="#a52a2a" d="M 259.39844 246.57814 L 250 250"/>
    <path fill="none" stroke="#228b22" d="M 250 250 L 250 260"/>
    <path fill="none" stroke="#228b22" d="M 250 260 L 260 260"/>
    <path fill="none" stroke="#228b22" d="M 260 260 L 260 250"/>
    <path fill="none" stroke="#228b22" d="M 260 250 L 250 250"/>
    <path fill="none" stroke="#ff0000" d="M 250 250 L 246.57814 259.39844"/>
    <path fill="none" stroke="#ff0000" d="M 246.57814 259.39844 L 255.97658 262.8203"/>
    <path fill="none" stroke="#ff0000" d="M 255.97658 262.8203 L 259.39844 253.42188"/>
    <path fill="none" stroke="#ff0000" d="M 259.39844 253.42188 L 250 250"/>
    <path fill="none" stroke="#ffff00" d="M 250 250 L 243.57031 257.66016"/>
    <path fill="none" stroke="#ffff00" d="M 243.57031 257.66016 L 251.23047 264.08984"/>
    <path fill="none" stroke="#ffff00" d="M 251.23047 264.08984 L 257.66016 256.4297"/>
    <path fill="none" stroke="#ffff00" d="M 257.66016 256.4297 L 250 250"/>
    <path fill="none" stroke="#a52a2a" d="M 250 250 L 241.33984 255"/>
    <path fill="none" stroke="#a52a2a" d="M 241.33984 255 L 246.33984 263.66016"/>
    <path fill="none" stroke="#a52a2a" d="M 246.33984 263.66016 L 255 258.66016"/>
    <path fill="none" stroke="#a52a2a" d="M 255 258.66016 L 250 250"/>
    <path fill="none" stroke="#228b22" d="M 250 250 L 240.15234 251.73828"/>
    <path fill="none" stroke="#228b22" d="M 240.15234 251.73828 L 241.89063 261.58594"/>
    <path fill="none" stroke="#228b22" d="M 241.89063 261.58594 L 251.73828 259.84766"/>
    <path fill="none" stroke="#228b22" d="M 251.73828 259.84766 L 250 250"/>
    <path fill="none" stroke="#ff0000" d="M 250 250 L 240.15234 248.26172"/>
    <path fill="none" stroke="#ff0000" d="M 240.15234 248.26172 L 238.41406 258.10938"/>
    <path fill="none" stroke="#ff0000" d="M 238.41406 258.10938 L 248.26172 259.84766"/>
    <path fill="none" stroke="#ff0000" d="M 248.26172 259.84766 L 250 250"/>
    <path fill="none" stroke="#ffff00" d="M 250 250 L 241.33984 245"/>
    <path fill="none" stroke="#ffff00" d="M 241.33984 245 L 236.33983 253.66016"/>
    <path fill="none" stroke="#ffff00" d="M 236.33983 253.66016 L 245 258.66016"/>
    <path fill="none" stroke="#ffff00" d="M 245 258.66016 L 250 250"/>
    <path fill="none" stroke="#a52a2a" d="M 250 250 L 243.57031 242.33984"/>
    <path fill="none" stroke="#a52a2a" d="M 243.57031 242.33984 L 235.91017 248.76953"/>
    <path fill="none" stroke="#a52a2a" d="M 235.91017 248.76953 L 242.33984 256.4297"/>
    <path fill="none" stroke="#a52a2a" d="M 242.33984 256.4297 L 250 250"/>
    <path fill="none" stroke="#228b22" d="M 250 250 L 246.57814 240.60156"/>
    <path fill="none" stroke="#228b22" d="M 246.57814 240.60156 L 237.17967 244.02344"/>
    <path fill="none" stroke="#228b22" d="M 237.17967 244.02344 L 240.60156 253.42188"/>
    <path fill="none" stroke="#228b22" d="M 240.60156 253.42188 L 250 250"/>
    <path fill="none" stroke="#ff0000" d="M 250 250 L 250 240"/>
    <path fill="none" stroke="#ff0000" d="M 250 240 L 240 240"/>
    <path fill="none" stroke="#ff0000" d="M 240 240 L 240 250"/>
    <path fill="none" stroke="#ff0000" d="M 240 250 L 250 250"/>
    <path fill="none" stroke="#ffff00" d="M 250 250 L 253.42188 240.60156"/>
    <path fill="none" stroke="#ffff00" d="M 253.42188 240.60156 L 244.02344 237.17967"/>
    <path fill="none" stroke="#ffff00" d="M 244.02344 237.17967 L 240.60156 246.57814"/>
    <path fill="none" stroke="#ffff00" d="M 240.60156 246.57814 L 250 250"/>
    <path fill="none" stroke="#a52a2a" d="M 250 250 L 256.4297 242.33984"/>
    <path fill="none" stroke="#a52a2a" d="M 256.4297 242.33984 L 248.76953 235.91017"/>
    <path fill="none" stroke="#a52a2a" d="M 248.76953 235.91017 L 242.33984 243.57031"/>
    <path fill="none" stroke="#a52a2a" d="M 242.33984 243.57031 L 250 250"/>
    <path fill="none" stroke="#228b22" d="M 250 250 L 258.66016 245"/>
    <path fill="none" stroke="#228b22" d="M 258.66016 245 L 253.66016 236.33983"/>
    <path fill="none" stroke="#228b22" d="M 253.66016 236.33983 L 245 241.33984"/>
    <path fill="none" stroke="#228b22" d="M 245 241.33984 L 250 250"/>
    <path fill="none" stroke="#ff0000" d="M 250 250 L 259.84766 248.26172"/>
    <path fill="none" stroke="#ff0000" d="M 259.84766 248.26172 L 258.10938 238.41406"/>
    <path fill="none" stroke="#ff0000" d="M 258.10938 238.41406 L 248.26172 240.15234"/>
    <path fill="none" stroke="#ff0000" d="M 248.26172 240.15234 L 250 250"/>
    <path fill="none" stroke="#ffff00" d="M 250 250 L 259.84766 251.73828"/>
    <path fill="none" stroke="#ffff00" d="M 259.84766 251.73828 L 261.58594 241.89063"/>
    <path fill="none" stroke="#ffff00" d="M 261.58594 241.89063 L 251.73828 240.15234"/>
    <path fill="none" stroke="#ffff00" d="M 251.73828 240.15234 L 250 250"/>
    <path fill="none" stroke="#a52a2a" d="M 250 250 L 258.66016 255"/>
    <path fill="none" stroke="#a52a2a" d="M 258.66016 255 L 263.66016 246.33984"/>
    <path fill="none" stroke="#a52a2a" d="M 263.66016 246.33984 L 255 241.33984"/>
    <path fill="none" stroke="#a52a2a" d="M 255 241.33984 L 250 250"/>
    <path fill="none" stroke="#228b22" d="M 250 250 L 256.4297 257.66016"/>
    <path fill="none" stroke="#228b22" d="M 256.4297 257.66016 L 264.08984 251.23047"/>
    <path fill="none" stroke="#228b22" d="M 264.08984 251.23047 L 257.66016 243.57031"/>
    <path fill="none" stroke="#228b22" d="M 257.66016 243.57031 L 250 250"/>
    <path fill="none" stroke="#ff0000" d="M 250 250 L 253.42188 259.39844"/>
    <path fill="none" stroke="#ff0000" d="M 253.42188 259.39844 L 262.8203 255.97658"/>
    <path fill="none" stroke="#ff0000" d="M 262.8203 255.97658 L 259.39844 246.57814"/>
    <path fill="none" stroke="#ff0000" d="M 259.39844 246.57814 L 250 250"/>
    <path fill="none" stroke="#ffff00" d="M 250 250 L 250 260"/>
    <path fill="none" stroke="#ffff00" d="M 250 260 L 260 260"/>
    <path fill="none" stroke="#ffff00" d="M 260 260 L 260 250"/>
    <path fill="none" stroke="#ffff00" d="M 260 250 L 250 250"/>
    <path fill="none" stroke="#a52a2a" d="M 250 250 L 246.57814 259.39844"/>
    <path fill="none" stroke="#a52a2a" d="M 246.57814 259.39844 L 255.97658 262.8203"/>
    <path fill="none" stroke="#a52a2a" d="M 255.97658 262.8203 L 259.39844 253.42188"/>
    <path fill="none" stroke="#a52a2a" d="M 259.39844 253.42188 L 250 250"/>
    <path fill="none" stroke="#228b22" d="M 250 250 L 243.57031 257.66016"/>
    <path fill="none" stroke="#228b22" d="M 243.57031 257.66016 L 251.23047 264.08984"/>
    <path fill="none" stroke="#228b22" d="M 251.23047 264.08984 L 257.66016 256.4297"/>
    <path fill="none" stroke="#228b22" d="M 257.66016 256.4297 L 250 250"/>
</svg>
