<svg width="500" height="500" viewBox="0 0 500 500" xmlns="http://www.w3.org/2000/svg">
    <defs/>
    <path fill="#000000" stroke="none" d="M 0 0 L 500 0 L 500 500 L 0 500 Z"/>
    <path fill="none" stroke="#d2b48c" d="M 250 250 L 250.6836 248.1211"/>
    <path fill="none" stroke="#d2b48c" d="M 250.6836 248.1211 L 248.80467 247.4375"/>
    <path fill="none" stroke="#d2b48c" d="M 248.80467 247.4375 L 248.1211 249.3164"/>
    <path fill="none" stroke="#d2b48c" d="M 248.1211 249.3164 L 250 250"/>
    <path fill="none" stroke="#ff0000" d="M 250 250 L 252.57031 246.9375"/>
    <path fill="none" stroke="#ff0000" d="M 252.57031 246.9375 L 249.50781 244.3672"/>
    <path fill="none" stroke="#ff0000" d="M 249.50781 244.3672 L 246.9375 247.42969"/>
    <path fill="none" stroke="#ff0000" d="M 246.9375 247.42969 L 250 250"/>
    <path fill="none" stroke="#ffff00" d="M 250 250 L 255.19533 247"/>
    <path fill="none" stroke="#ffff00" d="M 255.19533 247 L 252.19531 241.8047"/>
    <path fill="none" stroke="#ffff00" d="M 252.19531 241.8047 L 247 244.80469"/>
    <path fill="none" stroke="#ffff00" d="M 247 244.80469 L 250 250"/>
    <path fill="none" stroke="#a52a2a" d="M 250 250 L 257.8789 248.60938"/>
    <path fill="none" stroke="#a52a2a" d="M 257.8789 248.60938 L 256.48828 240.73045"/>
    <path fill="none" stroke="#a52a2a" d="M 256.48828 240.73045 L 248.60938 242.1211"/>
    <path fill="none" stroke="#a52a2a" d="M 248.60938 242.1211 L 250 250"/>
    <path fill="none" stroke="#228b22" d="M 250 250 L 259.84766 251.73828"/>
    <path fill="none" stroke="#228b22" d="M 259.84766 251.73828 L 261.58594 241.89063"/>
    <path fill="none" stroke="#228b22" d="M 261.58594 241.89063 L 251.73828 240.15234"/>
    <path fill="none" stroke="#228b22" d="M 251.73828 240.15234 L 250 250"/>
    <path fill="none" stroke="#ff0000" d="M 250 250 L 260.39063 256"/>
    <path fill="none" stroke="#ff0000" d="M 260.39063 256 L 266.39063 245.60938"/>
    <path fill="none" stroke="#ff0000" d="M 266.39063 245.60938 L 256 239.60939"/>
    <path fill="none" stroke="#ff0000" d="M 256 239.60939 L 250 250"/>
    <path fill="none" stroke="#ffff00" d="M 250 250 L 259 260.72656"/>
    <path fill="none" stroke="#ffff00" d="M 259 260.72656 L 269.72656 251.72656"/>
    <path fill="none" stroke="#ffff00" d="M 269.72656 251.72656 L 260.72656 241"/>
    <path fill="none" stroke="#ffff00" d="M 260.72656 241 L 250 250"/>
    <path fill="none" stroke="#a52a2a" d="M 250 250 L 255.47266 265.03516"/>
    <path fill="none" stroke="#a52a2a" d="M 255.47266 265.03516 L 270.5078 259.5625"/>
    <path fill="none" stroke="#a52a2a" d="M 270.5078 259.5625 L 265.03516 244.52734"/>
    <path fill="none" stroke="#a52a2a" d="M 265.03516 244.52734 L 250 250"/>
    <path fill="none" stroke="#228b22" d="M 250 250 L 250 268"/>
    <path fill="none" stroke="#228b22" d="M 250 268 L 268 268"/>
    <path fill="none" stroke="#228b22" d="M 268 268 L 268 250"/>
    <path fill="none" stroke="#228b22" d="M 268 250 L 250 250"/>
    <path fill="none" stroke="#ff0000" d="M 250 250 L 243.16017 268.79297"/>
    <path fill="none" stroke="#ff0000" d="M 243.16017 268.79297 L 261.95313 275.6328"/>
    <path fill="none" stroke="#ff0000" d="M 261.95313 275.6328 L 268.79297 256.83984"/>
    <path fill="none" stroke="#ff0000" d="M 268.79297 256.83984 L 250 250"/>
    <path fill="none" stroke="#ffff00" d="M 250 250 L 235.85938 266.85156"/>
    <path fill="none" stroke="#ffff00" d="M 235.85938 266.85156 L 252.71094 280.9922"/>
    <path fill="none" stroke="#ffff00" d="M 252.71094 280.9922 L 266.85156 264.14063"/>
    <path fill="none" stroke="#ffff00" d="M 266.85156 264.14063 L 250 250"/>
    <path fill="none" stroke="#a52a2a" d="M 250 250 L 229.21484 262"/>
    <path fill="none" stroke="#a52a2a" d="M 229.21484 262 L 241.21486 282.78516"/>
    <path fill="none" stroke="#a52a2a" d="M 241.21486 282.78516 L 262 270.78516"/>
    <path fill="none" stroke="#a52a2a" d="M 262 270.78516 L 250 250"/>
    <path fill="none" stroke="#228b22" d="M 250 250 L 224.39453 254.51563"/>
    <path fill="none" stroke="#228b22" d="M 224.39453 254.51563 L 228.91016 280.1211"/>
    <path fill="none" stroke="#228b22" d="M 228.91016 280.1211 L 254.51563 275.60547"/>
    <path fill="none" stroke="#228b22" d="M 254.51563 275.60547 L 250 250"/>
    <path fill="none" stroke="#ff0000" d="M 250 250 L 222.42578 245.13672"/>
    <path fill="none" stroke="#ff0000" d="M 222.42578 245.13672 L 217.5625 272.71094"/>
    <path fill="none" stroke="#ff0000" d="M 217.5625 272.71094 L 245.13672 277.57422"/>
    <path fill="none" stroke="#ff0000" d="M 245.13672 277.57422 L 250 250"/>
    <path fill="none" stroke="#ffff00" d="M 250 250 L 224.01953 235"/>
    <path fill="none" stroke="#ffff00" d="M 224.01953 235 L 209.01953 260.98047"/>
    <path fill="none" stroke="#ffff00" d="M 209.01953 260.98047 L 235 275.98047"/>
    <path fill="none" stroke="#ffff00" d="M 235 275.98047 L 250 250"/>
    <path fill="none" stroke="#a52a2a" d="M 250 250 L 229.42967 225.48828"/>
    <path fill="none" stroke="#a52a2a" d="M 229.42967 225.48828 L 204.91797 246.0586"/>
    <path fill="none" stroke="#a52a2a" d="M 204.91797 246.0586 L 225.48828 270.5703"/>
    <path fill="none" stroke="#a52a2a" d="M 225.48828 270.5703 L 250 250"/>
    <path fill="none" stroke="#228b22" d="M 250 250 L 238.37111 218.05078"/>
    <path fill="none" stroke="#228b22" d="M 238.37111 218.05078 L 206.42188 229.67967"/>
    <path fill="none" stroke="#228b22" d="M 206.42188 229.67967 L 218.05078 261.6289"/>
    <path fill="none" stroke="#228b22" d="M 218.05078 261.6289 L 250 250"/>
    <path fill="none" stroke="#ff0000" d="M 250 250 L 250 214"/>
    <path fill="none" stroke="#ff0000" d="M 250 214 L 214 214"/>
    <path fill="none" stroke="#ff0000" d="M 214 214 L 214 250"/>
    <path fill="none" stroke="#ff0000" d="M 214 250 L 250 250"/>
    <path fill="none" stroke="#ffff00" d="M 250 250 L 262.9961 214.29297"/>
    <path fill="none" stroke="#ffff00" d="M 262.9961 214.29297 L 227.28906 201.29688"/>
    <path fill="none" stroke="#ffff00" d="M 227.28906 201.29688 L 214.29297 237.0039"/>
    <path fill="none" stroke="#ffff00" d="M 214.29297 237.0039 L 250 250"/>
    <path fill="none" stroke="#a52a2a" d="M 250 250 L 275.71094 219.35938"/>
    <path fill="none" stroke="#a52a2a" d="M 275.71094 219.35938 L 245.07031 193.64844"/>
    <path fill="none" stroke="#a52a2a" d="M 245.07031 193.64844 L 219.35938 224.28905"/>
    <path fill="none" stroke="#a52a2a" d="M 219.35938 224.28905 L 250 250"/>
    <path fill="none" stroke="#228b22" d="M 250 250 L 286.375 229"/>
    <path fill="none" stroke="#228b22" d="M 286.375 229 L 265.375 192.62502"/>
    <path fill="none" stroke="#228b22" d="M 265.375 192.62502 L 229 213.625"/>
    <path fill="none" stroke="#228b22" d="M 229 213.625 L 250 250"/>
    <path fill="none" stroke="#ff0000" d="M 250 250 L 293.33203 242.35938"/>
    <path fill="none" stroke="#ff0000" d="M 293.33203 242.35938 L 285.6914 199.02734"/>
    <path fill="none" stroke="#ff0000" d="M 285.6914 199.02734 L 242.35938 206.66795"/>
    <path fill="none" stroke="#ff0000" d="M 242.35938 206.66795 L 250 250"/>
    <path fill="none" stroke="#ffff00" d="M 250 250 L 295.30078 257.98828"/>
    <path fill="none" stroke="#ffff00" d="M 295.30078 257.98828 L 303.28906 212.6875"/>
    <path fill="none" stroke="#ffff00" d="M 303.28906 212.6875 L 257.98828 204.69922"/>
    <path fill="none" stroke="#ffff00" d="M 257.98828 204.69922 L 250 250"/>
    <path fill="none" stroke="#a52a2a" d="M 250 250 L 291.5703 274"/>
    <path fill="none" stroke="#a52a2a" d="M 291.5703 274 L 315.5703 232.42969"/>
    <path fill="none" stroke="#a52a2a" d="M 315.5703 232.42969 L 274 208.42969"/>
    <path fill="none" stroke="#a52a2a" d="M 274 208.42969 L 250 250"/>
    <path fill="none" stroke="#228b22" d="M 250 250 L 282.14063 288.30078"/>
    <path fill="none" stroke="#228b22" d="M 282.14063 288.30078 L 320.4414 256.16016"/>
    <path fill="none" stroke="#228b22" d="M 320.4414 256.16016 L 288.30078 217.85938"/>
    <path fill="none" stroke="#228b22" d="M 288.30078 217.85938 L 250 250"/>
    <path fill="none" stroke="#ff0000" d="M 250 250 L 267.78516 298.86328"/>
    <path fill="none" stroke="#ff0000" d="M 267.78516 298.86328 L 316.64844 281.07813"/>
    <path fill="none" stroke="#ff0000" d="M 316.64844 281.07813 L 298.86328 232.21483"/>
    <path fill="none" stroke="#ff0000" d="M 298.86328 232.21483 L 250 250"/>
    <path fill="none" stroke="#ffff00" d="M 250 250 L 250 304"/>
    <path fill="none" stroke="#ffff00" d="M 250 304 L 304 304"/>
    <path fill="none" stroke="#ffff00" d="M 304 304 L 304 250"/>
    <path fill="none" stroke="#ffff00" d="M 304 250 L 250 250"/>
    <path fill="none" stroke="#a52a2a" d="M 250 250 L 230.84766 302.6211"/>
    <path fill="none" stroke="#a52a2a" d="M 230.84766 302.6211 L 283.46875 321.77344"/>
    <path fill="none" stroke="#a52a2a" d="M 283.46875 321.77344 L 302.6211 269.15234"/>
    <path fill="none" stroke="#a52a2a" d="M 302.6211 269.15234 L 250 250"/>
    <path fill="none" stroke="#228b22" d="M 250 250 L 212.71875 294.4297"/>
    <path fill="none" stroke="#228b22" d="M 212.71875 294.4297 L 257.14844 331.71094"/>
    <path fill="none" stroke="#228b22" d="M 257.14844 331.71094 L 294.4297 287.28125"/>
    <path fill="none" stroke="#228b22" d="M 294.4297 287.28125 L 250 250"/>
</svg>
