<svg width="500" height="500" viewBox="0 0 500 500" xmlns="http://www.w3.org/2000/svg">
    <defs/>
    <path fill="#000000" stroke="none" d="M 0 0 L 500 0 L 500 500 L 0 500 Z"/>
    <path fill="none" stroke="#d2b48c" d="M 250 250 L 250.6836 248.1211"/>
    <path fill="none" stroke="#d2b48c" d="M 250.6836 248.1211 L 201.8203 230.33594"/>
    <path fill="none" stroke="#d2b48c" d="M 201.8203 230.33594 L 201.13672 232.21483"/>
    <path fill="none" stroke="#d2b48c" d="M 201.13672 232.21483 L 250 250"/>
    <path fill="none" stroke="#ff0000" d="M 250 250 L 252.57031 246.9375"/>
    <path fill="none" stroke="#ff0000" d="M 252.57031 246.9375 L 211.20314 212.22656"/>
    <path fill="none" stroke="#ff0000" d="M 211.20314 212.22656 L 208.63281 215.28906"/>
    <path fill="none" stroke="#ff0000" d="M 208.63281 215.28906 L 250 250"/>
    <path fill="none" stroke="#ffff00" d="M 250 250 L 255.19533 247"/>
    <path fill="none" stroke="#ffff00" d="M 255.19533 247 L 227.19531 198.50392"/>
    <path fill="none" stroke="#ffff00" d="M 227.19531 198.50392 L 222 201.5039"/>
    <path fill="none" stroke="#ffff00" d="M 222 201.5039 L 250 250"/>
    <path fill="none" stroke="#a52a2a" d="M 250 250 L 257.8789 248.60938"/>
    <path fill="none" stroke="#a52a2a" d="M 257.8789 248.60938 L 247.8086 191.49217"/>
    <path fill="none" stroke="#a52a2a" d="M 247.8086 191.49217 L 239.92969 192.88281"/>
    <path fill="none" stroke="#a52a2a" d="M 239.92969 192.88281 L 250 250"/>
    <path fill="none" stroke="#228b22" d="M 250 250 L 259.84766 251.73828"/>
    <path fill="none" stroke="#228b22" d="M 259.84766 251.73828 L 270.26563 192.64844"/>
    <path fill="none" stroke="#228b22" d="M 270.26563 192.64844 L 260.41797 190.91016"/>
    <path fill="none" stroke="#228b22" d="M 260.41797 190.91016 L 250 250"/>
    <path fill="none" stroke="#ff0000" d="M 250 250 L 260.39063 256"/>
    <path fill="none" stroke="#ff0000" d="M 260.39063 256 L 291.39063 202.3047"/>
    <path fill="none" stroke="#ff0000" d="M 291.39063 202.3047 L 281 196.30469"/>
    <path fill="none" stroke="#ff0000" d="M 281 196.30469 L 250 250"/>
    <path fill="none" stroke="#ffff00" d="M 250 250 L 259 260.72656"/>
    <path fill="none" stroke="#ffff00" d="M 259 260.72656 L 308.02734 219.58984"/>
    <path fill="none" stroke="#ffff00" d="M 308.02734 219.58984 L 299.02734 208.86327"/>
    <path fill="none" stroke="#ffff00" d="M 299.02734 208.86327 L 250 250"/>
    <path fill="none" stroke="#a52a2a" d="M 250 250 L 255.47266 265.03516"/>
    <path fill="none" stroke="#a52a2a" d="M 255.47266 265.03516 L 317.4922 242.46094"/>
    <path fill="none" stroke="#a52a2a" d="M 317.4922 242.46094 L 312.01953 227.42577"/>
    <path fill="none" stroke="#a52a2a" d="M 312.01953 227.42577 L 250 250"/>
    <path fill="none" stroke="#228b22" d="M 250 250 L 250 268"/>
    <path fill="none" stroke="#228b22" d="M 250 268 L 318 268"/>
    <path fill="none" stroke="#228b22" d="M 318 268 L 318 250"/>
    <path fill="none" stroke="#228b22" d="M 318 250 L 250 250"/>
    <path fill="none" stroke="#ff0000" d="M 250 250 L 243.16017 268.79297"/>
    <path fill="none" stroke="#ff0000" d="M 243.16017 268.79297 L 308.9375 292.73438"/>
    <path fill="none" stroke="#ff0000" d="M 308.9375 292.73438 L 315.77734 273.9414"/>
    <path fill="none" stroke="#ff0000" d="M 315.77734 273.9414 L 250 250"/>
    <path fill="none" stroke="#ffff00" d="M 250 250 L 235.85938 266.85156"/>
    <path fill="none" stroke="#ffff00" d="M 235.85938 266.85156 L 291.01563 313.1328"/>
    <path fill="none" stroke="#ffff00" d="M 291.01563 313.1328 L 305.15625 296.28125"/>
    <path fill="none" stroke="#ffff00" d="M 305.15625 296.28125 L 250 250"/>
    <path fill="none" stroke="#a52a2a" d="M 250 250 L 229.21484 262"/>
    <path fill="none" stroke="#a52a2a" d="M 229.21484 262 L 266.21484 326.08594"/>
    <path fill="none" stroke="#a52a2a" d="M 266.21484 326.08594 L 287 314.08594"/>
    <path fill="none" stroke="#a52a2a" d="M 287 314.08594 L 250 250"/>
    <path fill="none" stroke="#228b22" d="M 250 250 L 224.39453 254.51563"/>
    <path fill="none" stroke="#228b22" d="M 224.39453 254.51563 L 237.59375 329.35938"/>
    <path fill="none" stroke="#228b22" d="M 237.59375 329.35938 L 263.19922 324.84375"/>
    <path fill="none" stroke="#228b22" d="M 263.19922 324.84375 L 250.0039 250"/>
    <path fill="none" stroke="#ff0000" d="M 250.0039 250 L 222.4297 245.13672"/>
    <path fill="none" stroke="#ff0000" d="M 222.4297 245.13672 L 208.88672 321.95313"/>
    <path fill="none" stroke="#ff0000" d="M 208.88672 321.95313 L 236.46094 326.8164"/>
    <path fill="none" stroke="#ff0000" d="M 236.46094 326.8164 L 250.0039 250"/>
    <path fill="none" stroke="#ffff00" d="M 250.0039 250 L 224.02342 235"/>
    <path fill="none" stroke="#ffff00" d="M 224.02342 235 L 184.02342 304.28125"/>
    <path fill="none" stroke="#ffff00" d="M 184.02342 304.28125 L 210.0039 319.28125"/>
    <path fill="none" stroke="#ffff00" d="M 210.0039 319.28125 L 250.0039 250"/>
    <path fill="none" stroke="#a52a2a" d="M 250.0039 250 L 229.4336 225.48828"/>
    <path fill="none" stroke="#a52a2a" d="M 229.4336 225.48828 L 166.61719 278.1953"/>
    <path fill="none" stroke="#a52a2a" d="M 166.61719 278.1953 L 187.1875 302.70703"/>
    <path fill="none" stroke="#a52a2a" d="M 187.1875 302.70703 L 250.0039 250"/>
    <path fill="none" stroke="#228b22" d="M 250.0039 250 L 238.375 218.05078"/>
    <path fill="none" stroke="#228b22" d="M 238.375 218.05078 L 159.4414 246.78125"/>
    <path fill="none" stroke="#228b22" d="M 159.4414 246.78125 L 171.07031 278.73047"/>
    <path fill="none" stroke="#228b22" d="M 171.07031 278.73047 L 250.0039 250"/>
    <path fill="none" stroke="#ff0000" d="M 250.0039 250 L 250.0039 214"/>
    <path fill="none" stroke="#ff0000" d="M 250.0039 214 L 164.0039 214"/>
    <path fill="none" stroke="#ff0000" d="M 164.0039 214 L 164.0039 250"/>
    <path fill="none" stroke="#ff0000" d="M 164.0039 250 L 250.0039 250"/>
    <path fill="none" stroke="#ffff00" d="M 250.0039 250 L 263 214.29297"/>
    <path fill="none" stroke="#ffff00" d="M 263 214.29297 L 180.30861 184.19531"/>
    <path fill="none" stroke="#ffff00" d="M 180.30861 184.19531 L 167.3125 219.90234"/>
    <path fill="none" stroke="#ffff00" d="M 167.3125 219.90234 L 250.0039 250"/>
    <path fill="none" stroke="#a52a2a" d="M 250.0039 250 L 275.71484 219.35938"/>
    <path fill="none" stroke="#a52a2a" d="M 275.71484 219.35938 L 206.76955 161.50781"/>
    <path fill="none" stroke="#a52a2a" d="M 206.76955 161.50781 L 181.0586 192.14844"/>
    <path fill="none" stroke="#a52a2a" d="M 181.0586 192.14844 L 250.0039 250"/>
    <path fill="none" stroke="#228b22" d="M 250.0039 250 L 286.3789 229"/>
    <path fill="none" stroke="#228b22" d="M 286.3789 229 L 240.3789 149.32422"/>
    <path fill="none" stroke="#228b22" d="M 240.3789 149.32422 L 204.0039 170.32422"/>
    <path fill="none" stroke="#228b22" d="M 204.0039 170.32422 L 250.0039 250"/>
    <path fill="none" stroke="#ff0000" d="M 250.0039 250 L 293.33594 242.35938"/>
    <path fill="none" stroke="#ff0000" d="M 293.33594 242.35938 L 277.01172 149.78906"/>
    <path fill="none" stroke="#ff0000" d="M 277.01172 149.78906 L 233.67969 157.42969"/>
    <path fill="none" stroke="#ff0000" d="M 233.67969 157.42969 L 250.0039 250"/>
    <path fill="none" stroke="#ffff00" d="M 250.0039 250 L 295.3047 257.98828"/>
    <path fill="none" stroke="#ffff00" d="M 295.3047 257.98828 L 311.97656 163.44531"/>
    <path fill="none" stroke="#ffff00" d="M 311.97656 163.44531 L 266.67578 155.45703"/>
    <path fill="none" stroke="#ffff00" d="M 266.67578 155.45703 L 250.0039 250"/>
    <path fill="none" stroke="#a52a2a" d="M 250.0039 250 L 291.57422 274"/>
    <path fill="none" stroke="#a52a2a" d="M 291.57422 274 L 340.57422 189.1289"/>
    <path fill="none" stroke="#a52a2a" d="M 340.57422 189.1289 L 299.0039 165.1289"/>
    <path fill="none" stroke="#a52a2a" d="M 299.0039 165.1289 L 250.0039 250"/>
    <path fill="none" stroke="#228b22" d="M 250.0039 250 L 282.14453 288.30078"/>
    <path fill="none" stroke="#228b22" d="M 282.14453 288.30078 L 358.75 224.02342"/>
    <path fill="none" stroke="#228b22" d="M 358.75 224.02342 L 326.60938 185.72266"/>
    <path fill="none" stroke="#228b22" d="M 326.60938 185.72266 L 250.0039 250"/>
    <path fill="none" stroke="#ff0000" d="M 250.0039 250 L 267.78906 298.86328"/>
    <path fill="none" stroke="#ff0000" d="M 267.78906 298.86328 L 363.63675 263.97656"/>
    <path fill="none" stroke="#ff0000" d="M 363.63675 263.97656 L 345.85156 215.11328"/>
    <path fill="none" stroke="#ff0000" d="M 345.85156 215.11328 L 250.0039 250"/>
    <path fill="none" stroke="#ffff00" d="M 250.0039 250 L 250.0039 304"/>
    <path fill="none" stroke="#ffff00" d="M 250.0039 304 L 354.00388 304"/>
    <path fill="none" stroke="#ffff00" d="M 354.00388 304 L 354.00388 250"/>
    <path fill="none" stroke="#ffff00" d="M 354.00388 250 L 250.0039 250"/>
    <path fill="none" stroke="#a52a2a" d="M 250.0039 250 L 230.85156 302.6211"/>
    <path fill="none" stroke="#a52a2a" d="M 230.85156 302.6211 L 330.46094 338.875"/>
    <path fill="none" stroke="#a52a2a" d="M 330.46094 338.875 L 349.61325 286.2539"/>
    <path fill="none" stroke="#a52a2a" d="M 349.61325 286.2539 L 250.00781 250"/>
    <path fill="none" stroke="#228b22" d="M 250.00781 250 L 212.72656 294.4297"/>
    <path fill="none" stroke="#228b22" d="M 212.72656 294.4297 L 295.46094 363.85156"/>
    <path fill="none" stroke="#228b22" d="M 295.46094 363.85156 L 332.7422 319.42188"/>
    <path fill="none" stroke="#228b22" d="M 332.7422 319.42188 L 250.00781 250"/>
</svg>
