<svg width="500" height="500" viewBox="0 0 500 500" xmlns="http://www.w3.org/2000/svg">
    <defs/>
    <path fill="#000000" stroke="none" d="M 0 0 L 500 0 L 500 500 L 0 500 Z"/>
    <path fill="none" stroke="#ffffff" d="M 250 250 L 250 250"/>
    <path fill="none" stroke="#ffffff" d="M 250 250 L 250 250"/>
    <path fill="none" stroke="#ffffff" d="M 250 250 L 250 250"/>
    <path fill="none" stroke="#ffffff" d="M 250 250 L 250 250"/>
    <path fill="none" stroke="#ffffff" d="M 250 250 L 250 250"/>
    <path fill="none" stroke="#0000ff" d="M 250 250 L 251.45314 244.17969"/>
    <path fill="none" stroke="#0000ff" d="M 251.45314 244.17969 L 253.69922 249.74219"/>
    <path fill="none" stroke="#0000ff" d="M 253.69922 249.74219 L 248.60938 246.56252"/>
    <path fill="none" stroke="#0000ff" d="M 248.60938 246.56252 L 254.59373 246.14453"/>
    <path fill="none" stroke="#0000ff" d="M 254.59373 246.14453 L 249.99611 250"/>
    <path fill="none" stroke="#0000ff" d="M 249.99611 250 L 254.29689 238.79688"/>
    <path fill="none" stroke="#0000ff" d="M 254.29689 238.79688 L 257.40234 250.38672"/>
    <path fill="none" stroke="#0000ff" d="M 257.40234 250.38672 L 248.07813 242.83595"/>
    <path fill="none" stroke="#0000ff" d="M 248.07813 242.83595 L 260.0625 243.46484"/>
    <path fill="none" stroke="#0000ff" d="M 260.0625 243.46484 L 250 250"/>
    <path fill="none" stroke="#0000ff" d="M 250 250 L 258.44922 234.10547"/>
    <path fill="none" stroke="#0000ff" d="M 258.44922 234.10547 L 260.95313 251.92969"/>
    <path fill="none" stroke="#0000ff" d="M 260.95313 251.92969 L 248.44923 238.98047"/>
    <path fill="none" stroke="#0000ff" d="M 248.44923 238.98047 L 266.17578 242.10547"/>
    <path fill="none" stroke="#0000ff" d="M 266.17578 242.10547 L 249.99611 249.99611"/>
    <path fill="none" stroke="#0000ff" d="M 249.99611 249.99611 L 263.76172 230.33594"/>
    <path fill="none" stroke="#0000ff" d="M 263.76172 230.33594 L 264.1797 254.33203"/>
    <path fill="none" stroke="#0000ff" d="M 264.1797 254.33203 L 249.73438 235.16406"/>
    <path fill="none" stroke="#0000ff" d="M 249.73438 235.16406 L 272.6875 242.17969"/>
    <path fill="none" stroke="#0000ff" d="M 272.6875 242.17969 L 249.99611 249.99219"/>
    <path fill="none" stroke="#0000ff" d="M 249.99611 249.99219 L 270.0703 227.69922"/>
    <path fill="none" stroke="#0000ff" d="M 270.0703 227.69922 L 266.9336 257.53516"/>
    <path fill="none" stroke="#0000ff" d="M 266.9336 257.53516 L 251.9336 231.55469"/>
    <path fill="none" stroke="#0000ff" d="M 251.9336 231.55469 L 279.33984 243.75781"/>
    <path fill="none" stroke="#0000ff" d="M 279.33984 243.75781 L 249.99611 249.99611"/>
    <path fill="none" stroke="#0000ff" d="M 249.99611 249.99611 L 277.16406 226.37892"/>
    <path fill="none" stroke="#0000ff" d="M 277.16406 226.37892 L 269.0664 261.45703"/>
    <path fill="none" stroke="#0000ff" d="M 269.0664 261.45703 L 255 228.32031"/>
    <path fill="none" stroke="#0000ff" d="M 255 228.32031 L 285.85938 246.86328"/>
    <path fill="none" stroke="#0000ff" d="M 285.85938 246.86328 L 249.99611 250"/>
    <path fill="none" stroke="#0000ff" d="M 249.99611 250 L 284.8164 226.51563"/>
    <path fill="none" stroke="#0000ff" d="M 284.8164 226.51563 L 270.45313 265.98438"/>
    <path fill="none" stroke="#0000ff" d="M 270.45313 265.98438 L 258.875 225.61327"/>
    <path fill="none" stroke="#0000ff" d="M 258.875 225.61327 L 291.97266 251.47266"/>
    <path fill="none" stroke="#0000ff" d="M 291.97266 251.47266 L 250 250.00781"/>
    <path fill="none" stroke="#0000ff" d="M 250 250.00781 L 292.76953 228.21484"/>
    <path fill="none" stroke="#0000ff" d="M 292.76953 228.21484 L 270.97656 270.98438"/>
    <path fill="none" stroke="#0000ff" d="M 270.97656 270.98438 L 263.46875 223.57422"/>
    <path fill="none" stroke="#0000ff" d="M 263.46875 223.57422 L 297.41016 257.51563"/>
    <path fill="none" stroke="#0000ff" d="M 297.41016 257.51563 L 250 250.00781"/>
    <path fill="none" stroke="#0000ff" d="M 250 250.00781 L 300.7422 231.53906"/>
    <path fill="none" stroke="#0000ff" d="M 300.7422 231.53906 L 270.54688 276.3086"/>
    <path fill="none" stroke="#0000ff" d="M 270.54688 276.3086 L 268.66406 222.33984"/>
    <path fill="none" stroke="#0000ff" d="M 268.66406 222.33984 L 301.91016 264.89063"/>
    <path fill="none" stroke="#0000ff" d="M 301.91016 264.89063 L 250.0039 250.00781"/>
    <path fill="none" stroke="#0000ff" d="M 250.0039 250.00781 L 308.46484 236.51172"/>
    <path fill="none" stroke="#0000ff" d="M 308.46484 236.51172 L 269.10156 281.79297"/>
    <path fill="none" stroke="#0000ff" d="M 269.10156 281.79297 L 274.33203 222.01952"/>
    <path fill="none" stroke="#0000ff" d="M 274.33203 222.01952 L 305.23438 273.44922"/>
    <path fill="none" stroke="#0000ff" d="M 305.23438 273.44922 L 250.0039 250.0039"/>
    <path fill="none" stroke="#0000ff" d="M 250.0039 250.0039 L 315.64063 243.10547"/>
    <path fill="none" stroke="#0000ff" d="M 315.64063 243.10547 L 266.59375 287.26953"/>
    <path fill="none" stroke="#0000ff" d="M 266.59375 287.26953 L 280.3164 222.71092"/>
    <path fill="none" stroke="#0000ff" d="M 280.3164 222.71092 L 307.16016 283.0039"/>
    <path fill="none" stroke="#0000ff" d="M 307.16016 283.0039 L 250.0039 250.0039"/>
    <path fill="none" stroke="#0000ff" d="M 250.0039 250.0039 L 321.9922 251.26173"/>
    <path fill="none" stroke="#0000ff" d="M 321.9922 251.26173 L 263.01172 292.5586"/>
    <path fill="none" stroke="#0000ff" d="M 263.01172 292.5586 L 286.45313 224.48045"/>
    <path fill="none" stroke="#0000ff" d="M 286.45313 224.48045 L 307.5039 293.33594"/>
    <path fill="none" stroke="#0000ff" d="M 307.5039 293.33594 L 250 250.0039"/>
    <path fill="none" stroke="#0000ff" d="M 250 250.0039 L 327.2422 260.85938"/>
    <path fill="none" stroke="#0000ff" d="M 327.2422 260.85938 L 258.3711 297.47656"/>
    <path fill="none" stroke="#0000ff" d="M 258.3711 297.47656 L 292.5625 227.3711"/>
    <path fill="none" stroke="#0000ff" d="M 292.5625 227.3711 L 306.10547 304.1875"/>
    <path fill="none" stroke="#0000ff" d="M 306.10547 304.1875 L 249.99611 250.0039"/>
    <path fill="none" stroke="#0000ff" d="M 249.99611 250.0039 L 331.1328 271.7422"/>
    <path fill="none" stroke="#0000ff" d="M 331.1328 271.7422 L 252.71094 301.84766"/>
    <path fill="none" stroke="#0000ff" d="M 252.71094 301.84766 L 298.46094 231.39844"/>
    <path fill="none" stroke="#0000ff" d="M 298.46094 231.39844 L 302.85938 315.28516"/>
    <path fill="none" stroke="#0000ff" d="M 302.85938 315.28516 L 249.99611 250.0039"/>
    <path fill="none" stroke="#0000ff" d="M 249.99611 250.0039 L 333.4414 283.71875"/>
    <path fill="none" stroke="#0000ff" d="M 333.4414 283.71875 L 246.11328 305.4922"/>
    <path fill="none" stroke="#0000ff" d="M 246.11328 305.4922 L 303.96484 236.54686"/>
    <path fill="none" stroke="#0000ff" d="M 303.96484 236.54686 L 297.6875 326.32813"/>
    <path fill="none" stroke="#0000ff" d="M 297.6875 326.32813 L 249.99611 250.0039"/>
    <path fill="none" stroke="#0000ff" d="M 249.99611 250.0039 L 333.96094 296.54688"/>
    <path fill="none" stroke="#0000ff" d="M 333.96094 296.54688 L 238.67578 308.2461"/>
    <path fill="none" stroke="#0000ff" d="M 238.67578 308.2461 L 308.88672 242.77344"/>
    <path fill="none" stroke="#0000ff" d="M 308.88672 242.77344 L 290.5703 337.0078"/>
    <path fill="none" stroke="#0000ff" d="M 290.5703 337.0078 L 250 250.0039"/>
    <path fill="none" stroke="#0000ff" d="M 250 250.0039 L 332.51953 309.95703"/>
    <path fill="none" stroke="#0000ff" d="M 332.51953 309.95703 L 230.51952 309.95703"/>
    <path fill="none" stroke="#0000ff" d="M 230.51952 309.95703 L 313.03906 250.0039"/>
    <path fill="none" stroke="#0000ff" d="M 313.03906 250.0039 L 281.51953 347.01172"/>
    <path fill="none" stroke="#0000ff" d="M 281.51953 347.01172 L 250 250.0039"/>
    <path fill="none" stroke="#0000ff" d="M 250 250.0039 L 328.98828 323.66016"/>
    <path fill="none" stroke="#0000ff" d="M 328.98828 323.66016 L 221.79297 310.5"/>
    <path fill="none" stroke="#0000ff" d="M 221.79297 310.5 L 316.25 258.14063"/>
    <path fill="none" stroke="#0000ff" d="M 316.25 258.14063 L 270.60547 356.0234"/>
    <path fill="none" stroke="#0000ff" d="M 270.60547 356.0234 L 250 250.00781"/>
    <path fill="none" stroke="#0000ff" d="M 250 250.00781 L 323.27734 337.33594"/>
    <path fill="none" stroke="#0000ff" d="M 323.27734 337.33594 L 212.66405 309.7578"/>
    <path fill="none" stroke="#0000ff" d="M 212.66405 309.7578 L 318.36328 267.05078"/>
    <path fill="none" stroke="#0000ff" d="M 318.36328 267.05078 L 257.95313 363.73044"/>
    <path fill="none" stroke="#0000ff" d="M 257.95313 363.73044 L 250 250.00781"/>
    <path fill="none" stroke="#0000ff" d="M 250 250.00781 L 315.35547 350.64844"/>
    <path fill="none" stroke="#0000ff" d="M 315.35547 350.64844 L 203.32422 307.64453"/>
    <path fill="none" stroke="#0000ff" d="M 203.32422 307.64453 L 319.23438 276.58594"/>
    <path fill="none" stroke="#0000ff" d="M 319.23438 276.58594 L 243.71877 369.84372"/>
    <path fill="none" stroke="#0000ff" d="M 243.71877 369.84372 L 249.99611 250.00781"/>
    <path fill="none" stroke="#0000ff" d="M 249.99611 250.00781 L 305.23047 363.2578"/>
    <path fill="none" stroke="#0000ff" d="M 305.23047 363.2578 L 193.98048 304.10156"/>
    <path fill="none" stroke="#0000ff" d="M 193.98048 304.10156 L 318.7539 286.5664"/>
    <path fill="none" stroke="#0000ff" d="M 318.7539 286.5664 L 228.1172 374.09375"/>
    <path fill="none" stroke="#0000ff" d="M 228.1172 374.09375 L 249.99611 250.00781"/>
    <path fill="none" stroke="#0000ff" d="M 249.99611 250.00781 L 292.96875 374.8164"/>
    <path fill="none" stroke="#0000ff" d="M 292.96875 374.8164 L 184.83984 299.10547"/>
    <path fill="none" stroke="#0000ff" d="M 184.83984 299.10547 L 316.8203 296.80078"/>
    <path fill="none" stroke="#0000ff" d="M 316.8203 296.80078 L 211.39844 376.23828"/>
    <path fill="none" stroke="#0000ff" d="M 211.39844 376.23828 L 249.99219 250.00781"/>
    <path fill="none" stroke="#0000ff" d="M 249.99219 250.00781 L 278.6836 384.9922"/>
    <path fill="none" stroke="#0000ff" d="M 278.6836 384.9922 L 176.1289 292.65234"/>
    <path fill="none" stroke="#0000ff" d="M 176.1289 292.65234 L 313.3711 307.07813"/>
    <path fill="none" stroke="#0000ff" d="M 313.3711 307.07813 L 193.85938 376.07813"/>
    <path fill="none" stroke="#0000ff" d="M 193.85938 376.07813 L 249.98828 250.00781"/>
    <path fill="none" stroke="#0000ff" d="M 249.98828 250.00781 L 262.53906 393.46094"/>
    <path fill="none" stroke="#0000ff" d="M 262.53906 393.46094 L 168.0664 284.78516"/>
    <path fill="none" stroke="#0000ff" d="M 168.0664 284.78516 L 308.375 317.17578"/>
    <path fill="none" stroke="#0000ff" d="M 308.375 317.17578 L 175.82422 373.4414"/>
    <path fill="none" stroke="#0000ff" d="M 175.82422 373.4414 L 249.98828 250.00781"/>
    <path fill="none" stroke="#0000ff" d="M 249.98828 250.00781 L 244.7539 399.91797"/>
    <path fill="none" stroke="#0000ff" d="M 244.7539 399.91797 L 160.875 275.5625"/>
    <path fill="none" stroke="#0000ff" d="M 160.875 275.5625 L 301.82813 326.86328"/>
    <path fill="none" stroke="#0000ff" d="M 301.82813 326.86328 L 157.64063 368.21094"/>
    <path fill="none" stroke="#0000ff" d="M 157.64063 368.21094 L 249.98828 250.00781"/>
    <path fill="none" stroke="#0000ff" d="M 249.98828 250.00781 L 225.58205 404.08594"/>
    <path fill="none" stroke="#0000ff" d="M 225.58205 404.08594 L 154.76172 265.08984"/>
    <path fill="none" stroke="#0000ff" d="M 154.76172 265.08984 L 293.7578 335.91406"/>
    <path fill="none" stroke="#0000ff" d="M 293.7578 335.91406 L 139.67969 360.3203"/>
    <path fill="none" stroke="#0000ff" d="M 139.67969 360.3203 L 249.98828 250.0117"/>
    <path fill="none" stroke="#0000ff" d="M 249.98828 250.0117 L 205.33594 405.73434"/>
    <path fill="none" stroke="#0000ff" d="M 205.33594 405.73434 L 149.92969 253.50389"/>
    <path fill="none" stroke="#0000ff" d="M 149.92969 253.50389 L 284.23438 344.09375"/>
    <path fill="none" stroke="#0000ff" d="M 284.23438 344.09375 L 122.33202 349.7461"/>
    <path fill="none" stroke="#0000ff" d="M 122.33202 349.7461 L 249.99219 250.0117"/>
    <path fill="none" stroke="#0000ff" d="M 249.99219 250.0117 L 184.35156 404.65625"/>
    <path fill="none" stroke="#0000ff" d="M 184.35156 404.65625 L 146.5586 240.96094"/>
    <path fill="none" stroke="#0000ff" d="M 146.5586 240.96094 L 273.35156 351.1797"/>
    <path fill="none" stroke="#0000ff" d="M 273.35156 351.1797 L 105.992195 336.53906"/>
    <path fill="none" stroke="#0000ff" d="M 105.992195 336.53906 L 249.99611 250.0117"/>
    <path fill="none" stroke="#0000ff" d="M 249.99611 250.0117 L 162.9961 400.69922"/>
    <path fill="none" stroke="#0000ff" d="M 162.9961 400.69922 L 144.8086 227.65234"/>
    <path fill="none" stroke="#0000ff" d="M 144.8086 227.65234 L 261.23828 356.95703"/>
    <path fill="none" stroke="#0000ff" d="M 261.23828 356.95703 L 91.039055 320.78125"/>
    <path fill="none" stroke="#0000ff" d="M 91.039055 320.78125 L 249.99611 250.00781"/>
    <path fill="none" stroke="#0000ff" d="M 249.99611 250.00781 L 141.67188 393.76566"/>
    <path fill="none" stroke="#0000ff" d="M 141.67188 393.76566 L 144.8125 213.79297"/>
    <path fill="none" stroke="#0000ff" d="M 144.8125 213.79297 L 248.0586 361.23828"/>
    <path fill="none" stroke="#0000ff" d="M 248.0586 361.23828 L 77.86328 302.63672"/>
    <path fill="none" stroke="#0000ff" d="M 77.86328 302.63672 L 249.99611 250.00781"/>
    <path fill="none" stroke="#0000ff" d="M 249.99611 250.00781 L 120.78906 383.8047"/>
    <path fill="none" stroke="#0000ff" d="M 120.78906 383.8047 L 146.67578 199.61328"/>
    <path fill="none" stroke="#0000ff" d="M 146.67578 199.61328 L 233.99611 363.84375"/>
    <path fill="none" stroke="#0000ff" d="M 233.99611 363.84375 L 66.82031 282.3086"/>
    <path fill="none" stroke="#0000ff" d="M 66.82031 282.3086 L 249.99219 250.00781"/>
    <path fill="none" stroke="#0000ff" d="M 249.99219 250.00781 L 100.78125 370.83594"/>
    <path fill="none" stroke="#0000ff" d="M 100.78125 370.83594 L 150.47656 185.37889"/>
    <path fill="none" stroke="#0000ff" d="M 150.47656 185.37889 L 219.28125 364.62503"/>
    <path fill="none" stroke="#0000ff" d="M 219.28125 364.62503 L 58.257813 260.0547"/>
    <path fill="none" stroke="#0000ff" d="M 58.257813 260.0547 L 249.99611 250.00781"/>
    <path fill="none" stroke="#0000ff" d="M 249.99611 250.00781 L 82.08203 354.9336"/>
    <path fill="none" stroke="#0000ff" d="M 82.08203 354.9336 L 156.2539 171.35156"/>
    <path fill="none" stroke="#0000ff" d="M 156.2539 171.35156 L 204.15625 363.46875"/>
    <path fill="none" stroke="#0000ff" d="M 204.15625 363.46875 L 52.480473 236.19531"/>
    <path fill="none" stroke="#0000ff" d="M 52.480473 236.19531 L 250 250.00781"/>
    <path fill="none" stroke="#0000ff" d="M 250 250.00781 L 65.11328 336.22266"/>
    <path fill="none" stroke="#0000ff" d="M 65.11328 336.22266 L 164.01172 157.80078"/>
    <path fill="none" stroke="#0000ff" d="M 164.01172 157.80078 L 188.875 360.28125"/>
    <path fill="none" stroke="#0000ff" d="M 188.875 360.28125 L 49.746094 211.08595"/>
    <path fill="none" stroke="#0000ff" d="M 49.746094 211.08595 L 250 250.0117"/>
    <path fill="none" stroke="#0000ff" d="M 250 250.0117 L 50.277344 314.90625"/>
    <path fill="none" stroke="#0000ff" d="M 50.277344 314.90625 L 173.71094 145.01172"/>
    <path fill="none" stroke="#0000ff" d="M 173.71094 145.01172 L 173.71484 355.01172"/>
    <path fill="none" stroke="#0000ff" d="M 173.71484 355.01172 L 50.277344 185.1211"/>
    <path fill="none" stroke="#0000ff" d="M 50.277344 185.1211 L 250 250.0117"/>
    <path fill="none" stroke="#0000ff" d="M 250 250.0117 L 37.96875 291.22266"/>
    <path fill="none" stroke="#0000ff" d="M 37.96875 291.22266 L 185.28125 133.25"/>
    <path fill="none" stroke="#0000ff" d="M 185.28125 133.25 L 158.96094 347.64063"/>
    <path fill="none" stroke="#0000ff" d="M 158.96094 347.64063 L 54.23828 158.72266"/>
    <path fill="none" stroke="#0000ff" d="M 54.23828 158.72266 L 250.0039 250.0039"/>
    <path fill="none" stroke="#0000ff" d="M 250.0039 250.0039 L 28.542969 265.48828"/>
    <path fill="none" stroke="#0000ff" d="M 28.542969 265.48828 L 198.60547 122.789055"/>
    <path fill="none" stroke="#0000ff" d="M 198.60547 122.789055 L 144.89844 338.1953"/>
    <path fill="none" stroke="#0000ff" d="M 144.89844 338.1953 L 61.73828 132.35938"/>
    <path fill="none" stroke="#0000ff" d="M 61.73828 132.35938 L 250.0039 250.0039"/>
    <path fill="none" stroke="#0000ff" d="M 250.0039 250.0039 L 22.316406 238.07031"/>
    <path fill="none" stroke="#0000ff" d="M 22.316406 238.07031 L 213.53127 113.890625"/>
    <path fill="none" stroke="#0000ff" d="M 213.53127 113.890625 L 131.82422 326.7461"/>
    <path fill="none" stroke="#0000ff" d="M 131.82422 326.7461 L 72.8125 106.51563"/>
    <path fill="none" stroke="#0000ff" d="M 72.8125 106.51563 L 250 250"/>
    <path fill="none" stroke="#0000ff" d="M 250 250 L 19.554688 209.36719"/>
    <path fill="none" stroke="#0000ff" d="M 19.554688 209.36719 L 229.87108 106.78516"/>
    <path fill="none" stroke="#0000ff" d="M 229.87108 106.78516 L 120.015625 313.39453"/>
    <path fill="none" stroke="#0000ff" d="M 120.015625 313.39453 L 87.44922 81.671875"/>
    <path fill="none" stroke="#0000ff" d="M 87.44922 81.671875 L 250 249.99611"/>
    <path fill="none" stroke="#0000ff" d="M 250 249.99611 L 20.484375 179.83203"/>
    <path fill="none" stroke="#0000ff" d="M 20.484375 179.83203 L 247.40625 101.6914"/>
    <path fill="none" stroke="#0000ff" d="M 247.40625 101.6914 L 109.74999 298.28906"/>
    <path fill="none" stroke="#0000ff" d="M 109.74999 298.28906 L 105.558586 58.32422"/>
    <path fill="none" stroke="#0000ff" d="M 105.558586 58.32422 L 249.99219 250"/>
    <path fill="none" stroke="#0000ff" d="M 249.99219 250 L 25.261719 149.9414"/>
    <path fill="none" stroke="#0000ff" d="M 25.261719 149.9414 L 265.88672 98.789055"/>
    <path fill="none" stroke="#0000ff" d="M 265.88672 98.789055 L 101.27735 281.60156"/>
    <path fill="none" stroke="#0000ff" d="M 101.27735 281.60156 L 126.98828 36.94922"/>
    <path fill="none" stroke="#0000ff" d="M 126.98828 36.94922 L 249.98438 249.99219"/>
    <path fill="none" stroke="#0000ff" d="M 249.98438 249.99219 L 33.98047 120.20312"/>
    <path fill="none" stroke="#0000ff" d="M 33.98047 120.20312 L 285.01953 98.234375"/>
    <path fill="none" stroke="#0000ff" d="M 285.01953 98.234375 L 94.83204 263.5586"/>
    <path fill="none" stroke="#0000ff" d="M 94.83204 263.5586 L 151.51563 18.015625"/>
    <path fill="none" stroke="#0000ff" d="M 151.51563 18.015625 L 249.97656 249.98438"/>
    <path fill="none" stroke="#0000ff" d="M 249.97656 249.98438 L 46.66797 91.14453"/>
    <path fill="none" stroke="#0000ff" d="M 46.66797 91.14453 L 304.51172 100.140625"/>
    <path fill="none" stroke="#0000ff" d="M 304.51172 100.140625 L 90.62109 244.41405"/>
    <path fill="none" stroke="#0000ff" d="M 90.62109 244.41405 L 178.85547 1.9726564"/>
    <path fill="none" stroke="#0000ff" d="M 178.85547 1.9726564 L 249.96875 249.97656"/>
    <path fill="none" stroke="#0000ff" d="M 249.96875 249.97656 L 63.29297 63.30078"/>
    <path fill="none" stroke="#0000ff" d="M 63.29297 63.30078 L 324.04297 104.60547"/>
    <path fill="none" stroke="#0000ff" d="M 324.04297 104.60547 L 88.81641 224.46094"/>
    <path fill="none" stroke="#0000ff" d="M 88.81641 224.46094 L 208.67578 -10.761719"/>
    <path fill="none" stroke="#0000ff" d="M 208.67578 -10.761719 L 249.97656 249.98828"/>
    <path fill="none" stroke="#0000ff" d="M 249.97656 249.98828 L 83.74609 37.226563"/>
    <path fill="none" stroke="#0000ff" d="M 83.74609 37.226563 L 343.28516 111.65234"/>
    <path fill="none" stroke="#0000ff" d="M 343.28516 111.65234 L 89.57031 204"/>
    <path fill="none" stroke="#0000ff" d="M 89.57031 204 L 240.5586 -19.835938"/>
    <path fill="none" stroke="#0000ff" d="M 240.5586 -19.835938 L 249.98438 250"/>
    <path fill="none" stroke="#0000ff" d="M 249.98438 250 L 107.828125 13.425782"/>
    <path fill="none" stroke="#0000ff" d="M 107.828125 13.425782 L 361.88672 121.26953"/>
    <path fill="none" stroke="#0000ff" d="M 361.88672 121.26953 L 92.960945 183.35936"/>
    <path fill="none" stroke="#0000ff" d="M 92.960945 183.35936 L 274.03516 -24.9375"/>
    <path fill="none" stroke="#0000ff" d="M 274.03516 -24.9375 L 249.98438 250.0117"/>
    <path fill="none" stroke="#0000ff" d="M 249.98438 250.0117 L 135.27734 -7.6054688"/>
    <path fill="none" stroke="#0000ff" d="M 135.27734 -7.6054688 L 379.4961 133.39453"/>
    <path fill="none" stroke="#0000ff" d="M 379.4961 133.39453 L 99.04297 162.8789"/>
    <path fill="none" stroke="#0000ff" d="M 99.04297 162.8789 L 308.60938 -25.8125"/>
    <path fill="none" stroke="#0000ff" d="M 308.60938 -25.8125 L 249.98438 250.02733"/>
    <path fill="none" stroke="#0000ff" d="M 249.98438 250.02733 L 165.77344 -25.386719"/>
    <path fill="none" stroke="#0000ff" d="M 165.77344 -25.386719 L 395.78125 147.9375"/>
    <path fill="none" stroke="#0000ff" d="M 395.78125 147.9375 L 107.82422 142.91797"/>
    <path fill="none" stroke="#0000ff" d="M 107.82422 142.91797 L 343.7422 -22.27344"/>
    <path fill="none" stroke="#0000ff" d="M 343.7422 -22.27344 L 249.98438 250.03908"/>
    <path fill="none" stroke="#0000ff" d="M 249.98438 250.03908 L 198.9375 -39.496094"/>
    <path fill="none" stroke="#0000ff" d="M 198.9375 -39.496094 L 410.42578 164.73047"/>
    <path fill="none" stroke="#0000ff" d="M 410.42578 164.73047 L 119.28907 123.804695"/>
    <path fill="none" stroke="#0000ff" d="M 119.28907 123.804695 L 378.875 -14.222656"/>
    <path fill="none" stroke="#0000ff" d="M 378.875 -14.222656 L 250.0039 250.02733"/>
    <path fill="none" stroke="#0000ff" d="M 250.0039 250.02733 L 234.3086 -49.5625"/>
    <path fill="none" stroke="#0000ff" d="M 234.3086 -49.5625 L 423.10938 183.57813"/>
    <path fill="none" stroke="#0000ff" d="M 423.10938 183.57813 L 133.33203 105.92579"/>
    <path fill="none" stroke="#0000ff" d="M 133.33203 105.92579 L 413.40625 -1.5859374"/>
    <path fill="none" stroke="#0000ff" d="M 413.40625 -1.5859374 L 250.00781 250.0117"/>
    <path fill="none" stroke="#0000ff" d="M 250.00781 250.0117 L 271.35547 -55.242188"/>
    <path fill="none" stroke="#0000ff" d="M 271.35547 -55.242188 L 433.51566 204.25781"/>
    <path fill="none" stroke="#0000ff" d="M 433.51566 204.25781 L 149.80078 89.62499"/>
    <path fill="none" stroke="#0000ff" d="M 149.80078 89.62499 L 446.71094 15.59375"/>
    <path fill="none" stroke="#0000ff" d="M 446.71094 15.59375 L 250.01563 250"/>
    <path fill="none" stroke="#0000ff" d="M 250.01563 250 L 309.55078 -56.265625"/>
    <path fill="none" stroke="#0000ff" d="M 309.55078 -56.265625 L 441.4141 226.5"/>
    <path fill="none" stroke="#0000ff" d="M 441.4141 226.5 L 168.53516 75.23828"/>
    <path fill="none" stroke="#0000ff" d="M 168.53516 75.23828 L 478.20703 37.20703"/>
    <path fill="none" stroke="#0000ff" d="M 478.20703 37.20703 L 250.02344 249.98828"/>
    <path fill="none" stroke="#0000ff" d="M 250.02344 249.98828 L 348.28906 -52.44922"/>
    <path fill="none" stroke="#0000ff" d="M 348.28906 -52.44922 L 446.5664 249.98438"/>
    <path fill="none" stroke="#0000ff" d="M 446.5664 249.98438 L 189.30078 63.07031"/>
    <path fill="none" stroke="#0000ff" d="M 189.30078 63.07031 L 507.30078 63.062504"/>
    <path fill="none" stroke="#0000ff" d="M 507.30078 63.062504 L 250.03125 249.97656"/>
    <path fill="none" stroke="#0000ff" d="M 250.03125 249.97656 L 386.95703 -43.66797"/>
    <path fill="none" stroke="#0000ff" d="M 386.95703 -43.66797 L 448.77344 274.3789"/>
    <path fill="none" stroke="#0000ff" d="M 448.77344 274.3789 L 211.8125 53.414063"/>
    <path fill="none" stroke="#0000ff" d="M 211.8125 53.414063 L 533.39844 92.88672"/>
    <path fill="none" stroke="#0000ff" d="M 533.39844 92.88672 L 250.02344 249.96484"/>
    <path fill="none" stroke="#0000ff" d="M 250.02344 249.96484 L 424.89453 -29.894531"/>
    <path fill="none" stroke="#0000ff" d="M 424.89453 -29.894531 L 447.9102 299.30078"/>
    <path fill="none" stroke="#0000ff" d="M 447.9102 299.30078 L 235.78906 46.507813"/>
    <path fill="none" stroke="#0000ff" d="M 235.78906 46.507813 L 555.9844 126.34766"/>
    <path fill="none" stroke="#0000ff" d="M 555.9844 126.34766 L 250.01563 249.97266"/>
    <path fill="none" stroke="#0000ff" d="M 250.01563 249.97266 L 461.46094 -11.152345"/>
    <path fill="none" stroke="#0000ff" d="M 461.46094 -11.152345 L 443.87112 324.38672"/>
    <path fill="none" stroke="#0000ff" d="M 443.87112 324.38672 L 260.8672 42.597656"/>
    <path fill="none" stroke="#0000ff" d="M 260.8672 42.597656 L 574.5469 163.01563"/>
    <path fill="none" stroke="#0000ff" d="M 574.5469 163.01563 L 249.99611 249.98438"/>
    <path fill="none" stroke="#0000ff" d="M 249.99611 249.98438 L 496.0039 12.40625"/>
    <path fill="none" stroke="#0000ff" d="M 496.0039 12.40625 L 436.61328 349.21094"/>
    <path fill="none" stroke="#0000ff" d="M 436.61328 349.21094 L 286.6836 41.828125"/>
    <path fill="none" stroke="#0000ff" d="M 286.6836 41.828125 L 588.65234 202.39063"/>
    <path fill="none" stroke="#0000ff" d="M 588.65234 202.39063 L 249.98048 249.99611"/>
    <path fill="none" stroke="#0000ff" d="M 249.98048 249.99611 L 527.89844 40.554688"/>
    <path fill="none" stroke="#0000ff" d="M 527.89844 40.554688 L 426.15234 373.34766"/>
    <path fill="none" stroke="#0000ff" d="M 426.15234 373.34766 L 312.84375 44.3125"/>
    <path fill="none" stroke="#0000ff" d="M 312.84375 44.3125 L 597.91016 243.91797"/>
    <path fill="none" stroke="#0000ff" d="M 597.91016 243.91797 L 249.96484 250"/>
    <path fill="none" stroke="#0000ff" d="M 249.96484 250 L 556.54297 73.00781"/>
    <path fill="none" stroke="#0000ff" d="M 556.54297 73.00781 L 412.5586 396.40237"/>
    <path fill="none" stroke="#0000ff" d="M 412.5586 396.40237 L 338.9453 50.140625"/>
    <path fill="none" stroke="#0000ff" d="M 338.9453 50.140625 L 602.01953 287.01172"/>
    <path fill="none" stroke="#0000ff" d="M 602.01953 287.01172 L 249.95703 250.01953"/>
    <path fill="none" stroke="#0000ff" d="M 249.95703 250.01953 L 581.33984 109.36328"/>
    <path fill="none" stroke="#0000ff" d="M 581.33984 109.36328 L 395.9297 417.9453"/>
    <path fill="none" stroke="#0000ff" d="M 395.9297 417.9453 L 364.5625 59.31641"/>
    <path fill="none" stroke="#0000ff" d="M 364.5625 59.31641 L 600.7461 331.0078"/>
    <path fill="none" stroke="#0000ff" d="M 600.7461 331.0078 L 249.97266 250.01953"/>
    <path fill="none" stroke="#0000ff" d="M 249.97266 250.01953 L 601.7969 149.14063"/>
    <path fill="none" stroke="#0000ff" d="M 601.7969 149.14063 L 376.46878 437.5586"/>
    <path fill="none" stroke="#0000ff" d="M 376.46878 437.5586 L 389.24606 71.78125"/>
    <path fill="none" stroke="#0000ff" d="M 389.24606 71.78125 L 593.91406 375.20703"/>
    <path fill="none" stroke="#0000ff" d="M 593.91406 375.20703 L 249.98828 250.02344"/>
    <path fill="none" stroke="#0000ff" d="M 249.98828 250.02344 L 617.41016 191.83202"/>
    <path fill="none" stroke="#0000ff" d="M 617.41016 191.83202 L 354.3711 454.88278"/>
    <path fill="none" stroke="#0000ff" d="M 354.3711 454.88278 L 412.5664 87.46484"/>
    <path fill="none" stroke="#0000ff" d="M 412.5664 87.46484 L 581.45703 418.91406"/>
    <path fill="none" stroke="#0000ff" d="M 581.45703 418.91406 L 250.0039 250.02733"/>
    <path fill="none" stroke="#0000ff" d="M 250.0039 250.02733 L 627.77344 236.83594"/>
    <path fill="none" stroke="#0000ff" d="M 627.77344 236.83594 L 329.91406 469.56644"/>
    <path fill="none" stroke="#0000ff" d="M 329.91406 469.56644 L 434.10547 106.21094"/>
    <path fill="none" stroke="#0000ff" d="M 434.10547 106.21094 L 563.39844 461.41013"/>
    <path fill="none" stroke="#0000ff" d="M 563.39844 461.41013 L 250.02344 250.03516"/>
    <path fill="none" stroke="#0000ff" d="M 250.02344 250.03516 L 632.5625 283.5"/>
    <path fill="none" stroke="#0000ff" d="M 632.5625 283.5 L 303.41797 481.28516"/>
    <path fill="none" stroke="#0000ff" d="M 303.41797 481.28516 L 453.45703 127.81249"/>
    <path fill="none" stroke="#0000ff" d="M 453.45703 127.81249 L 539.85156 501.96872"/>
    <path fill="none" stroke="#0000ff" d="M 539.85156 501.96872 L 250.04297 250.04297"/>
    <path fill="none" stroke="#0000ff" d="M 250.04297 250.04297 L 631.52344 331.125"/>
    <path fill="none" stroke="#0000ff" d="M 631.52344 331.125 L 275.23828 489.7461"/>
    <path fill="none" stroke="#0000ff" d="M 275.23828 489.7461 L 470.23434 151.99219"/>
    <path fill="none" stroke="#0000ff" d="M 470.23434 151.99219 L 510.9922 539.85547"/>
    <path fill="none" stroke="#0000ff" d="M 510.9922 539.85547 L 250.02733 250.03125"/>
    <path fill="none" stroke="#0000ff" d="M 250.02733 250.03125 L 624.45703 378.94922"/>
    <path fill="none" stroke="#0000ff" d="M 624.45703 378.94922 L 245.75781 494.72266"/>
    <path fill="none" stroke="#0000ff" d="M 245.75781 494.72266 L 484.0703 178.45703"/>
    <path fill="none" stroke="#0000ff" d="M 484.0703 178.45703 L 477.15234 574.39844"/>
    <path fill="none" stroke="#0000ff" d="M 477.15234 574.39844 L 250.0117 250.01953"/>
    <path fill="none" stroke="#0000ff" d="M 250.0117 250.01953 L 611.33203 426.23438"/>
    <path fill="none" stroke="#0000ff" d="M 611.33203 426.23438 L 215.4375 496.03906"/>
    <path fill="none" stroke="#0000ff" d="M 215.4375 496.03906 L 494.6836 206.85936"/>
    <path fill="none" stroke="#0000ff" d="M 494.6836 206.85936 L 438.73434 604.9453"/>
    <path fill="none" stroke="#0000ff" d="M 438.73434 604.9453 L 250 250.0039"/>
    <path fill="none" stroke="#0000ff" d="M 250 250.0039 L 592.1836 472.20703"/>
    <path fill="none" stroke="#0000ff" d="M 592.1836 472.20703 L 184.7422 493.5586"/>
    <path fill="none" stroke="#0000ff" d="M 184.7422 493.5586 L 501.8086 236.78516"/>
    <path fill="none" stroke="#0000ff" d="M 501.8086 236.78516 L 396.21097 630.8828"/>
    <path fill="none" stroke="#0000ff" d="M 396.21097 630.8828 L 249.98828 249.98438"/>
    <path fill="none" stroke="#0000ff" d="M 249.98828 249.98438 L 567.125 516.10547"/>
    <path fill="none" stroke="#0000ff" d="M 567.125 516.10547 L 154.13281 487.23047"/>
    <path fill="none" stroke="#0000ff" d="M 154.13281 487.23047 L 505.21875 267.83203"/>
    <path fill="none" stroke="#0000ff" d="M 505.21875 267.83203 L 350.1328 651.6875"/>
    <path fill="none" stroke="#0000ff" d="M 350.1328 651.6875 L 249.96484 249.98828"/>
    <path fill="none" stroke="#0000ff" d="M 249.96484 249.98828 L 536.39844 557.16016"/>
    <path fill="none" stroke="#0000ff" d="M 536.39844 557.16016 L 124.11329 477.02344"/>
    <path fill="none" stroke="#0000ff" d="M 124.11329 477.02344 L 504.76566 299.53125"/>
    <path fill="none" stroke="#0000ff" d="M 504.76566 299.53125 L 301.14844 666.875"/>
    <path fill="none" stroke="#0000ff" d="M 301.14844 666.875 L 249.97266 250.0039"/>
    <path fill="none" stroke="#0000ff" d="M 249.97266 250.0039 L 500.36325 594.64844"/>
    <path fill="none" stroke="#0000ff" d="M 500.36325 594.64844 L 95.21094 463.0156"/>
    <path fill="none" stroke="#0000ff" d="M 95.21094 463.0156 L 500.36325 331.3789"/>
    <path fill="none" stroke="#0000ff" d="M 500.36325 331.3789 L 249.97266 676.02344"/>
    <path fill="none" stroke="#0000ff" d="M 249.97266 676.02344 L 249.98048 250.02344"/>
    <path fill="none" stroke="#0000ff" d="M 249.98048 250.02344 L 459.41797 627.8594"/>
    <path fill="none" stroke="#0000ff" d="M 459.41797 627.8594 L 67.88672 445.29688"/>
    <path fill="none" stroke="#0000ff" d="M 67.88672 445.29688 L 491.94922 362.87112"/>
    <path fill="none" stroke="#0000ff" d="M 491.94922 362.87112 L 197.33203 678.8242"/>
    <path fill="none" stroke="#0000ff" d="M 197.33203 678.8242 L 249.98438 250.04297"/>
    <path fill="none" stroke="#0000ff" d="M 249.98438 250.04297 L 414.0625 656.14844"/>
    <path fill="none" stroke="#0000ff" d="M 414.0625 656.14844 L 42.609375 424.0547"/>
    <path fill="none" stroke="#0000ff" d="M 42.609375 424.0547 L 479.54297 393.5039"/>
    <path fill="none" stroke="#0000ff" d="M 479.54297 393.5039 L 144.02344 675.0547"/>
    <path fill="none" stroke="#0000ff" d="M 144.02344 675.0547 L 249.98828 250.0664"/>
    <path fill="none" stroke="#0000ff" d="M 249.98828 250.0664 L 364.90625 678.9375"/>
    <path fill="none" stroke="#0000ff" d="M 364.90625 678.9375 L 19.84375 399.53125"/>
    <path fill="none" stroke="#0000ff" d="M 19.84375 399.53125 L 463.23438 422.7656"/>
    <path fill="none" stroke="#0000ff" d="M 463.23438 422.7656 L 90.87109 664.59766"/>
    <path fill="none" stroke="#0000ff" d="M 90.87109 664.59766 L 249.98438 250.08592"/>
    <path fill="none" stroke="#0000ff" d="M 249.98438 250.08592 L 312.6172 695.707"/>
    <path fill="none" stroke="#0000ff" d="M 312.6172 695.707 L 0.02734375 372"/>
    <path fill="none" stroke="#0000ff" d="M 0.02734375 372 L 443.1914 450.13672"/>
    <path fill="none" stroke="#0000ff" d="M 443.1914 450.13672 L 38.73047 647.39453"/>
    <path fill="none" stroke="#0000ff" d="M 38.73047 647.39453 L 249.98828 250.0664"/>
    <path fill="none" stroke="#0000ff" d="M 249.98828 250.0664 L 257.95703 705.99603"/>
    <path fill="none" stroke="#0000ff" d="M 257.95703 705.99603 L -16.464844 341.8164"/>
    <path fill="none" stroke="#0000ff" d="M -16.464844 341.8164 L 419.61328 475.1289"/>
    <path fill="none" stroke="#0000ff" d="M 419.61328 475.1289 L -11.546875 623.58203"/>
    <path fill="none" stroke="#0000ff" d="M -11.546875 623.58203 L 250 250.04297"/>
    <path fill="none" stroke="#0000ff" d="M 250 250.04297 L 201.71875 709.5117"/>
    <path fill="none" stroke="#0000ff" d="M 201.71875 709.5117 L -29.277342 309.40625"/>
    <path fill="none" stroke="#0000ff" d="M -29.277342 309.40625 L 392.78516 497.3086"/>
    <path fill="none" stroke="#0000ff" d="M 392.78516 497.3086 L -59.121098 593.3594"/>
    <path fill="none" stroke="#0000ff" d="M -59.121098 593.3594 L 250.0117 250.01953"/>
    <path fill="none" stroke="#0000ff" d="M 250.0117 250.01953 L 144.75 706.02734"/>
    <path fill="none" stroke="#0000ff" d="M 144.75 706.02734 L -38.11328 275.23047"/>
    <path fill="none" stroke="#0000ff" d="M -38.11328 275.23047 L 363.04688 516.2578"/>
    <path fill="none" stroke="#0000ff" d="M 363.04688 516.2578 L -103.17187 557.0469"/>
    <path fill="none" stroke="#0000ff" d="M -103.17187 557.0469 L 250.02344 250"/>
    <path fill="none" stroke="#0000ff" d="M 250.02344 250 L 87.92188 695.42194"/>
    <path fill="none" stroke="#0000ff" d="M 87.92188 695.42194 L -42.734375 239.78517"/>
    <path fill="none" stroke="#0000ff" d="M -42.734375 239.78517 L 330.79297 531.59375"/>
    <path fill="none" stroke="#0000ff" d="M 330.79297 531.59375 L -142.91797 515.0547"/>
    <path fill="none" stroke="#0000ff" d="M -142.91797 515.0547 L 250.03908 249.98438"/>
    <path fill="none" stroke="#0000ff" d="M 250.03908 249.98438 L 32.117188 677.66406"/>
    <path fill="none" stroke="#0000ff" d="M 32.117188 677.66406 L -42.976563 203.5742"/>
    <path fill="none" stroke="#0000ff" d="M -42.976563 203.5742 L 296.4297 542.9922"/>
    <path fill="none" stroke="#0000ff" d="M 296.4297 542.9922 L -177.66016 467.90622"/>
    <path fill="none" stroke="#0000ff" d="M -177.66016 467.90622 L 250.02733 250"/>
    <path fill="none" stroke="#0000ff" d="M 250.02733 250 L -21.71875 652.9258"/>
    <path fill="none" stroke="#0000ff" d="M -21.71875 652.9258 L -38.6875 167.22266"/>
    <path fill="none" stroke="#0000ff" d="M -38.6875 167.22266 L 260.51953 550.1992"/>
    <path fill="none" stroke="#0000ff" d="M 260.51953 550.1992 L -206.64844 416.21878"/>
    <path fill="none" stroke="#0000ff" d="M -206.64844 416.21878 L 250.03516 249.97656"/>
    <path fill="none" stroke="#0000ff" d="M 250.03516 249.97656 L -72.75 621.29297"/>
    <path fill="none" stroke="#0000ff" d="M -72.75 621.29297 L -29.851564 131.16797"/>
    <path fill="none" stroke="#0000ff" d="M -29.851564 131.16797 L 223.57031 552.8828"/>
    <path fill="none" stroke="#0000ff" d="M 223.57031 552.8828 L -229.32031 360.65234"/>
    <path fill="none" stroke="#0000ff" d="M -229.32031 360.65234 L 250.0703 249.98048"/>
    <path fill="none" stroke="#0000ff" d="M 250.0703 249.98048 L -119.9961 583.23047"/>
    <path fill="none" stroke="#0000ff" d="M -119.9961 583.23047 L -16.46875 96.109375"/>
    <path fill="none" stroke="#0000ff" d="M -16.46875 96.109375 L 186.08592 551.0547"/>
    <path fill="none" stroke="#0000ff" d="M 186.08592 551.0547 L -245.1875 302.03906"/>
    <path fill="none" stroke="#0000ff" d="M -245.1875 302.03906 L 250.08203 249.95703"/>
    <path fill="none" stroke="#0000ff" d="M 250.08203 249.95703 L -162.76953 539.04297"/>
    <path fill="none" stroke="#0000ff" d="M -162.76953 539.04297 L 1.328125 62.503906"/>
    <path fill="none" stroke="#0000ff" d="M 1.328125 62.503906 L 148.71484 544.47266"/>
    <path fill="none" stroke="#0000ff" d="M 148.71484 544.47266 L -253.8086 241.17186"/>
    <path fill="none" stroke="#0000ff" d="M -253.8086 241.17186 L 250.1133 249.96875"/>
    <path fill="none" stroke="#0000ff" d="M 250.1133 249.96875 L -200.20313 489.3789"/>
    <path fill="none" stroke="#0000ff" d="M -200.20313 489.3789 L 23.347656 30.984373"/>
    <path fill="none" stroke="#0000ff" d="M 23.347656 30.984373 L 111.91406 533.2344"/>
    <path fill="none" stroke="#0000ff" d="M 111.91406 533.2344 L -254.9414 178.94922"/>
    <path fill="none" stroke="#0000ff" d="M -254.9414 178.94922 L 250.10156 249.89063"/>
    <path fill="none" stroke="#0000ff" d="M 250.10156 249.89063 L -231.6211 434.8164"/>
    <path fill="none" stroke="#0000ff" d="M -231.6211 434.8164 L 49.41797 2.0664063"/>
    <path fill="none" stroke="#0000ff" d="M 49.41797 2.0664063 L 76.39844 517.3594"/>
    <path fill="none" stroke="#0000ff" d="M 76.39844 517.3594 L -248.34764 116.36719"/>
    <path fill="none" stroke="#0000ff" d="M -248.34764 116.36719 L 250.0703 249.91016"/>
    <path fill="none" stroke="#0000ff" d="M 250.0703 249.91016 L -256.4297 376.17578"/>
    <path fill="none" stroke="#0000ff" d="M -256.4297 376.17578 L 79.08203 -23.71875"/>
    <path fill="none" stroke="#0000ff" d="M 79.08203 -23.71875 L 42.679688 497.01172"/>
    <path fill="none" stroke="#0000ff" d="M 42.679688 497.01172 L -233.9336 54.328125"/>
    <path fill="none" stroke="#0000ff" d="M -233.9336 54.328125 L 250.04688 249.89063"/>
    <path fill="none" stroke="#0000ff" d="M 250.04688 249.89063 L -274.01563 314.2539"/>
    <path fill="none" stroke="#0000ff" d="M -274.01563 314.2539 L 112.140625 -45.83984"/>
    <path fill="none" stroke="#0000ff" d="M 112.140625 -45.83984 L 11.375 472.457"/>
    <path fill="none" stroke="#0000ff" d="M 11.375 472.457 L -211.79688 -6.0625"/>
    <path fill="none" stroke="#0000ff" d="M -211.79688 -6.0625 L 250.00781 249.90627"/>
    <path fill="none" stroke="#0000ff" d="M 250.00781 249.90627 L -283.9922 249.89452"/>
    <path fill="none" stroke="#0000ff" d="M -283.9922 249.89452 L 148.0039 -64.01172"/>
    <path fill="none" stroke="#0000ff" d="M 148.0039 -64.01172 L -16.992188 443.8594"/>
    <path fill="none" stroke="#0000ff" d="M -16.992188 443.8594 L -182.00781 -64.00391"/>
    <path fill="none" stroke="#0000ff" d="M -182.00781 -64.00391 L 250 249.88672"/>
    <path fill="none" stroke="#0000ff" d="M 250 249.88672 L -285.97656 184.10156"/>
    <path fill="none" stroke="#0000ff" d="M -285.97656 184.10156 L 186.3164 -77.69922"/>
    <path fill="none" stroke="#0000ff" d="M 186.3164 -77.69922 L -41.90625 411.70313"/>
    <path fill="none" stroke="#0000ff" d="M -41.90625 411.70313 L -144.91406 -118.38282"/>
    <path fill="none" stroke="#0000ff" d="M -144.91406 -118.38282 L 250.03125 249.88281"/>
    <path fill="none" stroke="#0000ff" d="M 250.03125 249.88281 L -279.75 117.78516"/>
    <path fill="none" stroke="#0000ff" d="M -279.75 117.78516 L 226.5 -86.72656"/>
    <path fill="none" stroke="#0000ff" d="M 226.5 -86.72656 L -62.812496 376.3203"/>
    <path fill="none" stroke="#0000ff" d="M -62.812496 376.3203 L -100.90625 -168.34766"/>
    <path fill="none" stroke="#0000ff" d="M -100.90625 -168.34766 L 250.05078 249.91797"/>
    <path fill="none" stroke="#0000ff" d="M 250.05078 249.91797 L -265.29688 52.128906"/>
    <path fill="none" stroke="#0000ff" d="M -265.29688 52.128906 L 267.89063 -90.75"/>
    <path fill="none" stroke="#0000ff" d="M 267.89063 -90.75 L -79.49609 338.23047"/>
    <path fill="none" stroke="#0000ff" d="M -79.49609 338.23047 L -50.585938 -213.01172"/>
    <path fill="none" stroke="#0000ff" d="M -50.585938 -213.01172 L 250.07813 249.91797"/>
    <path fill="none" stroke="#0000ff" d="M 250.07813 249.91797 L -242.60547 -12.046875"/>
    <path fill="none" stroke="#0000ff" d="M -242.60547 -12.046875 L 309.96484 -89.6875"/>
    <path fill="none" stroke="#0000ff" d="M 309.96484 -89.6875 L -91.40234 297.95703"/>
    <path fill="none" stroke="#0000ff" d="M -91.40234 297.95703 L 5.4765625 -251.57031"/>
    <path fill="none" stroke="#0000ff" d="M 5.4765625 -251.57031 L 250.08592 249.95703"/>
    <path fill="none" stroke="#0000ff" d="M 250.08592 249.95703 L -211.9375 -73.50781"/>
    <path fill="none" stroke="#0000ff" d="M -211.9375 -73.50781 L 351.97656 -83.37109"/>
    <path fill="none" stroke="#0000ff" d="M 351.97656 -83.37109 L -98.453125 256.0547"/>
    <path fill="none" stroke="#0000ff" d="M -98.453125 256.0547 L 66.46094 -283.29688"/>
    <path fill="none" stroke="#0000ff" d="M 66.46094 -283.29688 L 250.1133 249.96484"/>
    <path fill="none" stroke="#0000ff" d="M 250.1133 249.96484 L -173.48438 -131.4336"/>
    <path fill="none" stroke="#0000ff" d="M -173.48438 -131.4336 L 393.39063 -71.83984"/>
    <path fill="none" stroke="#0000ff" d="M 393.39063 -71.83984 L -100.25781 213.13672"/>
    <path fill="none" stroke="#0000ff" d="M -100.25781 213.13672 L 131.5625 -307.59375"/>
    <path fill="none" stroke="#0000ff" d="M 131.5625 -307.59375 L 250.07813 249.94922"/>
    <path fill="none" stroke="#0000ff" d="M 250.07813 249.94922 L -127.79297 -184.78125"/>
    <path fill="none" stroke="#0000ff" d="M -127.79297 -184.78125 L 433.44922 -55.234375"/>
    <path fill="none" stroke="#0000ff" d="M 433.44922 -55.234375 L -96.75781 169.83594"/>
    <path fill="none" stroke="#0000ff" d="M -96.75781 169.83594 L 199.91016 -323.88672"/>
    <path fill="none" stroke="#0000ff" d="M 199.91016 -323.88672 L 250.08592 249.92578"/>
    <path fill="none" stroke="#0000ff" d="M 250.08592 249.92578 L -75.375 -232.56642"/>
    <path fill="none" stroke="#0000ff" d="M -75.375 -232.56642 L 471.52344 -33.507813"/>
    <path fill="none" stroke="#0000ff" d="M 471.52344 -33.507813 L -87.93749 126.89063"/>
    <path fill="none" stroke="#0000ff" d="M -87.93749 126.89063 L 270.35547 -331.75"/>
    <path fill="none" stroke="#0000ff" d="M 270.35547 -331.75 L 250.0547 249.89452"/>
    <path fill="none" stroke="#0000ff" d="M 250.0547 249.89452 L -16.875 -274.02734"/>
    <path fill="none" stroke="#0000ff" d="M -16.875 -274.02734 L 507.0547 -7.1132813"/>
    <path fill="none" stroke="#0000ff" d="M 507.0547 -7.1132813 L -73.703125 84.88672"/>
    <path fill="none" stroke="#0000ff" d="M -73.703125 84.88672 L 342.07813 -330.89063"/>
    <path fill="none" stroke="#0000ff" d="M 342.07813 -330.89063 L 250.07422 249.86719"/>
    <path fill="none" stroke="#0000ff" d="M 250.07422 249.86719 L 46.89453 -308.3047"/>
    <path fill="none" stroke="#0000ff" d="M 46.89453 -308.3047 L 539.34375 23.855467"/>
    <path fill="none" stroke="#0000ff" d="M 539.34375 23.855467 L -54.29687 44.570313"/>
    <path fill="none" stroke="#0000ff" d="M -54.29687 44.570313 L 413.7578 -321.16406"/>
    <path fill="none" stroke="#0000ff" d="M 413.7578 -321.16406 L 250.04688 249.83203"/>
</svg>
